<svg viewBox="145.83783783783792 229.95000000000005 1036.2162162162163 1130.5875" xmlns="http://www.w3.org/2000/svg" overflow="visible" xmlns:xlink="http://www.w3.org/1999/xlink" width="1036.2162162162163px" height="1130.5875px"><g id="Master/Character/Bust" stroke="none" stroke-width="1" fill="none" fill-rule="evenodd"><g id="Body" transform="translate(147.000000, 639.000000) scale(1 1)"><g id="Body/Macbook" stroke="none" stroke-width="1" fill="none" fill-rule="evenodd"><path d="M996.081905,209.472139 C981.802496,210.874139 967.523087,212.274139 953.243677,213.676139 C884.855668,218.901139 816.494687,229.813139 748.630206,236.362139 C746.940501,233.612139 743.633163,234.065139 741.625137,235.976139 C734.853304,235.383139 727.263645,230.207139 721.129455,235.591139 C720.930254,235.563139 720.731053,235.530139 720.52985,235.511139 C709.607829,214.548139 702.058211,192.189139 694.730817,169.800139 C690.054098,156.035139 683.761748,142.710139 672.134015,133.468139 C652.289991,119.693139 606.82211,91.7601393 583.520597,92.9341393 C583.134207,88.7621393 581.189244,84.4621393 577.996022,81.6841393 C585.034124,69.6851393 556.892727,61.8561393 554.907724,63.2471393 C556.180008,23.1591393 537.322979,-11.6548607 495.743022,-19.6378607 C458.492433,-27.3998607 405.509969,-28.7038607 385.475753,10.2251393 C383.273531,9.97713926 360.762449,9.85993926 358.584251,10.1039393 C355.197834,5.81493926 318.008321,46.4570207 333.250702,60.6060207 C196.978192,120.888021 119.493355,113.695139 81.7752946,283.164139 C76.6761492,299.084139 76.3047744,316.505139 70.9203411,332.070139 C51.7640108,376.801139 36.226332,424.432139 32.35943,473.104139 C23.0200057,475.497139 21.9459219,491.964139 32.763838,494.346139 C36.8960077,495.257139 40.3514946,496.501139 43.364535,498.860139 C41.0091582,538.746139 50.6558926,629.860139 56.7340259,629.579139 C69.127532,669.022139 124.40912,680.153955 163.546613,666.292955 C156.799805,678.985955 163.546613,686.966717 163.546613,693.748626 C304.373719,699.076626 458.353293,696.008139 599.141359,703.315139 C617.150532,703.059139 636.092646,707.738139 653.85557,705.045139 C664.688502,702.448139 664.70652,685.415139 653.718432,683.309139 L701.731222,672.881011 C700.658139,672.476011 721.522366,658.598251 737.291278,632.665251 C751.969089,603.655251 741.979495,568.637451 748.630206,537.081451 C800.574622,532.833451 853.377905,531.017139 904.753747,522.220139 C911.758816,543.179139 942.082415,518.113139 951.721141,508.030139 C951.709129,508.014139 951.697117,507.999139 951.685105,507.983139 C956.349812,506.707139 960.090587,502.335139 960.215713,497.159139 C963.487014,492.485139 964.173707,485.897139 961.036541,481.380139 C975.41505,398.412139 997.335169,313.700139 1005.25816,229.952139 C1008.05899,229.332139 1010.69665,228.104139 1012.93291,226.212139 L1012.75173,226.031139 C1016.54055,221.807139 1017.27729,214.516139 1010.96092,210.927139 C1005.86578,208.029139 1001.61148,208.928139 996.081905,209.472139 Z" id="Skin" fill="#ffdbb4"/><path d="M453,520 L464,527 L554,556 L609,563 L654,556 L654,633 L663,705 C659,712.333333 621,712.333333 549,705 C503.101885,700.325192 335.356095,698.057214 297.164029,697.059228 L295,697 C250.120339,695.705482 205.787005,695.705482 162,697 L162,670 L287,608 L399,545 L453,520 Z M389.229039,3.93187748 L397.494804,10.1039393 L379.447912,39.7540495 L467.360804,110.864719 L467.360804,167.663759 L495.19331,193.988358 L511.102162,167.663759 L533.51913,137.85242 L549.450017,89.5283855 L544.02577,57.6917655 L554.934063,56.6640801 C554.986839,58.839968 554.977914,61.0355276 554.907724,63.2471393 C556.892727,61.8561393 585.034124,69.6851393 577.996022,81.6841393 C581.189244,84.4621393 583.134207,88.7621393 583.520597,92.9341393 C606.82211,91.7601393 652.289991,119.693139 672.134015,133.468139 C683.761748,142.710139 690.054098,156.035139 694.730817,169.800139 L695.831986,173.158094 L696.968868,176.605259 L698.114318,180.049759 C704.442543,198.985147 711.275651,217.749246 720.52985,235.511139 C720.731053,235.530139 720.930254,235.563139 721.129455,235.591139 C727.263645,230.207139 734.853304,235.383139 741.625137,235.976139 C743.586465,234.109581 746.787374,233.633998 748.509731,236.175454 L748.630206,236.362139 L664.258946,252.983022 L608.598321,448.227022 L560.125689,408.880909 L534.107599,412.75018 L465.398657,437.531463 L385.485804,458.28915 L203.05544,508.584205 L179.823549,508.584205 L44.6389945,475.938893 L32.4560261,471.917566 C36.4791435,423.658066 51.9197085,376.437577 70.9203411,332.070139 C76.3047744,316.505139 76.6761492,299.084139 81.7752946,283.164139 C119.493355,113.695139 196.978192,120.888021 333.250702,60.6060207 C318.008321,46.4570207 355.197834,5.81493926 358.584251,10.1039393 L358.797717,10.0854223 L359.259233,10.0607179 L359.853859,10.0399668 C365.170087,9.88537935 383.499595,10.0025971 385.475753,10.2251393 C386.622027,7.9977854 387.876162,5.90214021 389.229039,3.93187748 Z" id="Top" fill="#FFCF77"/><path d="M1009.5673,215.400439 L1007.05419,229.405148 C1006.45692,229.600743 1005.84923,229.766376 1005.23366,229.902639 C1004.44383,238.251388 1003.51489,246.609717 1002.46819,254.974943 L986.887304,341.814439 C984.199909,357.177659 981.648737,372.573587 979.116221,387.974936 L975.760285,404.518035 L973.681958,414.799826 C969.195412,437.066278 964.836896,459.260163 961.012041,481.330639 C961.58932,482.161826 962.03712,483.063138 962.363164,484.009746 L962.068822,485.253748 L961.86417,486.083221 L961.654796,486.902578 C958.637009,498.503245 953.385982,509.752684 941.011304,513.166439 C931.677018,515.740118 921.435202,515.973372 911.79669,516.989191 L910.728304,517.105439 L742.069304,536.072439 C721.690104,538.363639 701.320504,540.723959 680.952824,543.109367 L663.296131,545.180245 C638.685891,548.030098 613.934117,550.272846 589.686304,555.431439 C588.795304,555.621439 588.057304,555.977439 587.455304,556.445439 C592.338304,537.962439 597.012304,519.503439 601.248304,500.833439 C606.016304,479.820439 610.541304,458.766439 615.641304,437.829439 C625.915304,395.649439 637.432304,353.746439 650.040304,312.203439 C652.686137,303.484273 655.393082,294.782467 658.159401,286.100916 L660.100474,280.032364 L661.594595,275.196489 C663.906373,267.823046 666.767142,260.24462 673.546304,256.177439 C681.479804,251.417144 692.298546,250.627996 701.29655,248.981745 L707.389716,247.837189 C716.506082,246.136356 725.634137,244.500106 734.773304,242.928439 C778.529304,235.402439 822.533304,229.365439 866.699304,224.830439 C912.657369,220.110762 958.775579,217.04405 1004.94971,215.54511 L1009.5673,215.400439 Z M590.949904,504.943499 L591.380304,504.979439 L585.080304,555.340439 C584.073304,554.635439 582.794304,554.203439 581.233304,554.207439 C560.568554,554.268283 540.759606,547.663726 521.599628,540.402895 L518.681926,539.291011 L510.547256,536.164407 C502.278424,532.996279 493.965304,529.898039 485.497304,527.328439 L482.074178,526.295406 L480.33417,525.781569 C473.922744,523.909931 467.178359,522.208583 460.509226,521.785155 L459.600304,521.735439 L461.542304,520.716439 C461.826304,520.567439 462.075304,520.400439 462.296304,520.220439 C465.967304,520.492439 469.645304,520.418439 473.517304,519.720439 C480.799304,518.409439 487.880304,515.876439 494.382304,512.349439 L497.286269,510.7755 L498.475038,510.144805 L499.260383,509.737656 L500.041373,509.342696 C505.62568,506.558985 510.965379,504.816014 518.016304,506.298439 C526.020498,507.983278 533.034785,512.296941 540.250062,515.942258 L541.530594,516.579866 L542.391527,516.995852 L543.269247,517.408691 L544.157467,517.814515 C553.914592,522.205009 569.442947,526.94347 573.184304,513.677439 C574.687304,508.347439 573.510304,503.356439 570.902304,498.980439 C575.762304,498.559787 584.444539,504.289737 590.949904,504.943499 Z M833.827501,339.015658 L833.945078,339.619889 C835.324774,347.047446 831.864808,354.152618 826.629004,359.332439 C822.334004,363.580439 814.733004,365.941439 812.580004,372.052439 C811.354004,375.529439 812.658004,378.826439 815.176004,381.125439 L814.596054,381.411865 L814.029082,381.701674 L813.47555,381.994352 L812.935839,382.289421 L812.410252,382.586431 C803.85624,387.500608 796.89004,395.492469 804.605004,405.145439 C813.35683,416.096102 831.643938,416.450921 844.528224,415.594112 L845.396196,415.533361 C857.889502,414.596564 872.688651,410.40011 879.463004,398.864439 C882.570004,393.572439 882.228004,387.172439 877.897004,382.643439 C875.284004,379.911439 870.623004,377.105439 866.349004,376.773439 C866.536004,374.365439 866.249004,372.039439 865.402004,370.076439 C863.570004,365.833439 858.695004,362.976439 853.993004,362.873439 C854.373746,353.863794 847.157484,344.970541 841.844065,337.767983 L841.301578,337.028987 L840.775004,336.302439 C838.337096,332.910439 833.120695,334.810762 833.827501,339.015658 Z M840.957004,348.605439 L845.798004,366.739439 L845.714867,366.888591 C844.00965,370.126721 848.479703,373.802494 851.131083,371.081688 L851.398019,370.794002 C854.544754,367.544072 859.374928,371.912651 859.435004,375.371439 C859.521004,380.240722 856.351156,384.005498 852.574441,386.492599 L852.309998,386.664043 L851.61369,387.096633 C848.514242,389.144993 850.860754,393.427606 854.268004,392.906439 C858.484004,392.261439 861.939004,388.917439 864.069004,384.742439 C866.345004,385.394439 868.935004,385.315439 871.332004,386.656439 C877.372134,390.034491 873.898303,395.944119 869.965036,399.515887 L869.80535,399.659395 L869.485004,399.938439 C862.268778,406.0921 852.443851,408.229709 843.182656,408.687854 L842.649004,408.712439 C833.294004,409.112439 821.106004,409.246439 813.088004,403.744439 C808.098004,400.320439 806.653004,395.464439 810.876004,390.865439 C813.264004,388.266439 815.675004,385.644439 818.157004,383.110439 C821.872004,384.883439 825.190004,384.164439 828.989004,382.486439 C829.476004,382.270439 829.206004,381.525439 828.729004,381.525439 C826.633004,381.523439 818.942004,377.632439 818.568004,375.146439 C818.222446,372.845439 822.476905,370.905564 824.545736,369.793862 L824.845859,369.629428 L825.106004,369.478439 C827.270004,368.167439 829.307004,366.641439 831.169004,364.927439 C835.894798,360.577263 839.327169,355.12113 840.826083,349.1497 L840.957004,348.605439 Z" id="Computer" fill="#FFF"/><path d="M388.071804,1.18393926 C392.314804,-9.47906074 406.657804,-5.33406074 405.058804,5.86793926 C404.101804,12.5779393 400.426804,19.6649393 397.125804,25.5459393 C394.437804,30.3329393 391.371804,35.0049393 387.214804,38.5929393 C394.614804,45.4969393 402.295804,52.1489393 410.171804,58.4649393 C418.765804,65.3559393 427.802804,71.7079393 437.143804,77.5459393 C445.334804,82.6659393 453.895804,87.2019393 461.616804,93.0439393 C468.795804,98.4749393 475.335804,105.006939 478.663804,113.533939 C482.209022,122.614285 480.668325,131.991781 478.057701,141.065997 L477.757804,142.091939 C475.090804,151.081939 470.473804,161.918939 476.875804,170.388939 C480.134804,174.700939 484.872804,177.754939 488.963804,181.201939 C492.599804,184.265939 496.012804,187.597939 499.142804,191.176939 C505.967804,198.978939 511.518804,207.757939 515.021804,217.539939 L515.335067,218.428623 C518.337571,227.088035 520.531904,237.696106 516.474804,246.197939 C515.310804,248.634939 511.556804,247.842939 510.904804,245.469939 C509.430804,240.093939 509.507804,234.463939 508.271804,229.011939 C506.985804,223.341939 504.845804,217.959939 502.050804,212.867939 C496.642962,203.017176 489.319089,194.602725 480.666283,187.488889 L478.076053,185.382482 C471.325873,179.842857 465.12394,173.966041 463.753804,164.797939 C462.287804,154.988939 466.217804,145.644939 468.744804,136.360939 C470.505804,129.890939 471.080804,123.688939 469.177804,117.841939 C466.852804,121.636939 463.680804,125.238939 461.171804,128.451939 C456.174804,134.852939 451.130804,141.214939 446.099804,147.588939 C440.941804,154.124939 435.910804,160.763939 431.119804,167.574939 C428.976804,170.621939 426.856804,173.686939 424.743804,176.754939 C423.154804,179.060939 420.938804,181.364939 419.206804,183.716939 C419.627804,184.974939 419.595804,186.424939 418.832804,187.454939 C409.647804,199.864939 396.580804,173.970939 393.172804,167.428939 C386.232804,154.105939 381.067804,139.951939 374.104804,126.631939 C366.889804,112.823939 358.673804,99.3839393 349.516804,86.7779393 C343.977804,79.1529393 337.769804,71.9909393 332.702804,64.1239393 C320.765804,74.9479393 305.057804,82.2039393 290.629804,88.7839393 C274.777423,96.0125107 258.308262,101.917726 242.05506,108.188388 L237.253971,110.053126 C209.249222,120.982528 180.560105,132.989789 157.282804,152.402939 C129.929804,175.215939 113.747804,207.011939 101.700804,239.937939 C87.832804,277.842939 76.359804,316.770939 65.664804,355.673939 C60.191804,375.578939 54.998804,395.573939 50.116804,415.632939 C45.814804,433.304939 42.248804,451.152939 37.268804,468.642939 C47.368804,468.285939 58.887804,472.195939 67.510804,473.324939 C106.809804,478.468939 145.579804,486.668939 182.682804,500.865939 C187.265804,502.619939 188.591804,507.196939 187.593804,510.906939 C190.236804,510.160939 192.877804,509.404939 195.520804,508.662939 C192.625145,504.226121 194.007208,496.293776 194.234863,491.376062 L194.248804,491.037939 C194.482804,484.484939 195.193804,477.924939 195.654804,471.383939 C196.53265,458.915016 197.67549,446.537265 199.195012,434.139785 L199.582804,431.039939 C201.304804,417.551939 202.577804,403.984939 204.456804,390.519939 L204.678804,388.978939 C203.777804,385.533939 202.728804,382.130939 201.627804,378.742939 C198.693804,369.717939 194.552804,361.222939 190.923804,352.481939 C190.495804,351.452939 191.961804,350.861939 192.646804,351.478939 C198.792804,357.007939 203.674804,364.021939 207.596804,371.357939 C207.664804,371.011939 207.724804,370.664939 207.795804,370.318939 L208.243344,368.116142 C209.346961,362.744094 210.689349,357.09197 213.984804,352.734939 C214.335804,352.271939 215.029804,352.174939 215.361804,352.734939 C218.515804,358.071939 218.868804,364.830939 219.353804,370.903939 C219.902804,377.773939 219.971804,384.730939 219.874804,391.619939 C219.685804,405.082939 218.736804,418.583939 217.980804,432.024939 C217.239157,445.23341 215.782659,458.273576 213.905608,471.352197 L213.548804,473.804939 C212.631221,480.030023 211.880012,486.332411 210.669732,492.514921 L210.327804,494.197939 C209.680804,497.263939 209.282804,501.586939 207.994804,505.177939 C241.132804,495.934939 274.321804,486.902939 307.573804,478.029939 C331.606804,471.615939 355.664804,465.297939 379.712804,458.939939 C380.981804,456.652939 382.561804,454.516939 384.533804,452.607939 C391.030804,446.315939 399.640804,443.508939 407.537804,448.351939 C408.179804,448.746939 408.233804,449.752939 407.537804,450.133939 C406.024804,450.960939 404.508804,451.808939 403.019804,452.692939 L417.459804,448.781939 C428.252804,445.856939 439.174804,442.201939 450.221804,440.162939 C470.568804,430.121939 492.452804,422.853939 513.886804,415.670939 L516.412565,414.8166 C527.387299,411.075021 538.739018,406.886368 550.077804,404.811939 C558.378804,403.293939 568.122804,405.125939 571.460804,413.629939 C575.686804,416.414939 579.662804,419.687939 583.499804,422.906939 C586.273804,425.232939 588.932804,427.705939 591.636804,430.113939 L592.135299,430.55156 C594.345863,432.469539 596.097011,433.754077 596.639804,436.806939 C596.919804,438.383939 595.917804,440.515939 593.972804,440.306939 C588.021804,439.669939 583.182804,432.771939 579.146804,428.652939 C576.028804,425.468939 572.885804,422.176939 570.039804,418.677939 C568.380804,419.580939 566.106804,419.418939 565.050804,417.418939 C559.574804,407.049939 544.573804,414.234939 536.273804,416.693939 L524.383868,420.213171 C518.439284,421.975299 512.497004,423.746139 506.564804,425.547939 C490.260804,430.498939 474.036804,436.039939 457.584804,440.586939 C459.056804,442.204939 458.853804,445.082939 456.057804,446.177939 C443.179804,451.230939 429.051804,453.843939 415.672804,457.310939 C407.225804,459.501939 398.783804,461.705939 390.344804,463.922939 C388.897804,466.266939 387.856804,468.918939 387.418804,472.005939 C385.808355,483.35647 388.914341,496.452513 391.939857,507.430601 L392.395606,509.068544 C394.882684,517.894774 398.541716,528.714606 406.156804,534.287939 C408.015804,535.646939 410.382804,536.592939 412.768804,536.806939 C427.675804,529.133939 442.581804,521.461939 457.496804,513.803939 C460.259804,512.384939 462.812804,514.305939 463.432804,516.589939 C468.691804,515.726939 473.938804,514.366939 478.717804,512.744939 C486.747804,510.017939 493.017804,504.816939 500.545804,501.219939 C515.111884,494.261859 529.9867,502.808778 543.028306,509.306647 L546.034069,510.783952 C551.882418,513.621497 564.049511,519.072677 566.855804,511.311939 C569.569804,503.803939 560.988804,495.779939 555.446804,492.400939 C548.840804,488.371939 541.148804,486.215939 533.682804,484.419939 C529.419804,483.393939 525.104804,482.556939 520.763804,481.945939 C515.839804,481.252939 510.753804,481.356939 506.012804,479.759939 C503.656804,478.967939 503.294804,475.225939 506.012804,474.607939 C513.310891,472.947048 522.021438,474.758723 529.63727,476.610074 L533.617804,477.590939 C541.290804,479.473939 549.037804,481.836939 556.026804,485.592939 C561.108804,488.324939 566.472804,492.474939 569.976804,497.554939 C573.019727,494.728324 576.80696,494.823886 580.752034,495.872232 L582.89332,496.467476 C586.429192,497.447347 589.295233,498.121796 592.735804,497.442939 C593.195804,494.939939 593.661804,492.435939 594.160804,489.931939 C599.063804,465.317939 604.440804,440.797939 610.373804,416.408939 C620.607675,374.341197 632.449558,332.735162 645.79976,291.555487 L647.139804,287.438939 C650.218804,278.019939 652.696804,267.757939 657.660804,259.104939 C662.355804,250.922939 669.877804,246.209939 678.814804,243.713939 C688.956804,240.881939 699.613804,239.399939 709.959804,237.486939 C712.267804,237.060939 714.581804,236.655939 716.891804,236.236939 C714.939637,232.712273 713.482517,228.711291 712.169996,225.640838 L711.939804,225.108939 C709.120104,218.680239 706.587144,212.135709 704.141178,205.556268 L702.3115,200.609995 C697.895182,188.699199 693.336161,176.984011 687.126804,165.843939 C680.590804,154.119939 671.919804,144.534939 661.110804,136.601939 C639.072804,120.425939 612.509804,112.174939 591.134804,94.8879393 C590.258804,94.1799393 591.381804,92.9689393 592.270804,93.4169393 C606.703804,100.668939 622.284804,105.599939 637.296804,111.503939 L640.258158,112.672373 C652.12352,117.376034 664.17365,122.496555 674.443804,130.111939 C685.893804,138.603939 694.911804,149.149939 701.689804,161.690939 C708.369804,174.052939 712.642804,187.889939 717.355804,201.093939 L718.616328,204.612202 C720.517316,209.887906 722.480804,215.147848 724.730804,220.281939 C726.516804,224.357939 729.849804,229.010939 731.364804,233.666939 C735.509804,232.947939 739.653804,232.226939 743.802804,231.533939 C833.669804,216.529939 924.540804,207.713939 1015.6138,205.134939 C1019.1768,205.033939 1021.0198,208.433939 1020.4948,211.541939 C1011.7548,263.222939 1003.9878,315.080939 995.465804,366.800939 C991.745804,389.373939 987.951804,411.929939 984.068804,434.474939 C982.101804,445.896939 979.827804,457.274939 977.964804,468.713939 C976.460804,477.951939 975.368804,487.261939 972.786804,496.285939 C970.470804,504.376939 966.916804,512.178939 961.079804,518.351939 C954.787804,525.005939 946.005804,528.226939 937.165804,529.748939 C914.724804,533.610939 891.706804,535.187939 869.083804,537.760939 L748.636804,551.463939 C750.396942,567.46256 750.528485,583.212277 749.720894,599.397149 L749.260632,608.232502 C748.884367,615.339127 748.434554,622.456439 747.413804,629.489939 C746.133804,638.312939 742.097804,645.783939 736.152804,652.373939 C730.693804,658.425939 724.061804,663.589939 717.610804,668.537939 C710.914804,673.675939 703.995804,678.634939 696.122804,681.811939 L695.100929,682.21752 C688.194063,684.914176 675.237493,689.090005 665.796804,687.563939 C667.030804,693.746939 669.418804,700.394939 667.301804,706.512939 C666.319804,709.353939 662.604804,710.770939 660.328804,708.353939 C655.819804,703.562939 655.467804,697.234939 654.399804,690.984939 C653.288804,684.480939 652.330804,677.953939 651.479804,671.410939 C649.833804,658.759939 648.552804,645.992939 648.161804,633.234939 C647.759804,620.132939 647.914804,607.012939 648.620804,593.924939 C648.983804,587.203939 649.433804,580.486939 650.286804,573.808939 C650.650804,570.960939 651.022804,568.110939 651.447804,565.269939 C651.602804,564.233939 651.774804,563.202939 651.959804,562.173939 L641.148985,563.393634 C624.572281,565.24423 607.987697,566.915368 591.293804,567.174939 C589.316804,567.204939 587.795804,566.304939 586.801804,564.993939 C585.742804,566.718939 583.898804,567.952939 581.257804,567.942939 C557.944804,567.855939 536.234804,560.232939 515.030804,551.248939 C504.342804,546.718939 493.820804,541.814939 483.116804,537.323939 C473.125804,533.131939 462.444804,530.140939 452.694804,525.418939 L427.074804,538.856939 C426.886804,539.517939 426.645804,540.142939 426.389804,540.665939 C424.721804,544.070939 421.432804,545.917939 418.073804,547.308939 C414.849804,548.646939 411.510804,549.062939 408.257804,548.724939 C388.827554,558.906939 369.392804,569.079377 349.945117,579.227908 L330.492804,589.367939 C291.736804,609.546939 253.133804,630.056939 214.133804,649.761939 L211.262616,651.207286 C197.791866,657.961939 183.327004,664.808873 168.377804,669.917939 C168.111804,673.701939 168.279804,677.381939 168.596804,681.386939 L168.673114,682.259395 C169.118828,686.99223 170.07451,692.922527 166.277804,696.291939 C164.302804,698.043939 160.774804,698.050939 159.431804,695.408939 C156.994804,690.617939 159.182804,683.064939 159.954804,677.859939 C160.228804,676.008939 160.562804,674.105939 161.056804,672.259939 C143.918804,677.361939 126.261804,679.835939 108.821804,676.970939 C91.841804,674.183939 78.690804,663.486939 68.088804,650.402939 C56.899804,636.595939 48.948804,620.504939 44.682804,603.255939 C39.827804,583.627939 39.510804,563.357939 39.624804,543.252939 C39.745804,521.843939 40.537804,500.328939 43.141804,479.063939 C40.288804,478.392939 37.124804,477.812939 34.241804,478.012939 C32.813804,480.297939 30.043804,481.259939 27.540804,480.962939 C22.097804,486.965939 35.903804,493.100939 40.315804,494.636939 C41.847804,495.170939 41.683804,497.658939 39.916804,497.583939 L38.8037812,497.531033 C31.9864196,497.168346 24.9431661,496.00437 20.934804,489.668939 C17.722804,484.590939 18.687804,478.574939 22.516804,474.433939 C25.045804,450.521939 31.091804,427.236939 36.718804,403.910939 C42.240804,381.015939 48.381804,358.267939 54.890804,335.634939 L57.8088287,325.504852 C68.0571273,290.016283 78.7691518,254.241374 92.905804,220.162939 C99.964804,203.146939 108.096804,186.443939 119.119804,171.606939 C129.394804,157.775939 141.525804,145.940939 155.469804,135.832939 C181.464819,116.987219 211.967279,105.600189 241.937238,94.7513706 L243.278804,94.2659393 C258.809804,88.6479393 274.302804,82.9629393 289.656804,76.8759393 C303.235804,71.4929393 316.244804,64.6679393 329.759804,59.2039393 C329.320804,58.4069393 328.896804,57.6009393 328.488804,56.7859393 L328.238952,56.9960874 C328.196248,57.0300504 328.152471,57.0629393 328.106804,57.0939393 C326.747804,58.0359393 324.746804,57.5729393 323.626804,56.5159393 C320.464375,53.5319189 321.53502,50.2194466 323.645922,47.1247781 L323.920804,46.7309393 C326.502804,43.1139393 328.805804,39.2899393 331.188804,35.5419393 L332.681058,33.1980764 C336.681014,26.9364578 340.884471,20.6330504 346.217804,15.4579393 C348.687804,13.0599393 351.391804,11.2659393 354.256804,9.92893926 C354.011804,9.41093926 356.159804,8.35193926 356.768804,8.88493926 C365.845804,5.56293926 376.288804,6.25893926 386.184804,7.17493926 M742.808804,552.125939 L730.188804,553.560939 C716.304804,555.140739 702.415404,556.668339 688.524276,558.181107 L658.351804,561.459939 C658.274804,563.179939 658.065804,564.861939 658.027804,566.160939 C657.830804,572.857939 657.683804,579.557939 657.544804,586.256939 C657.265804,599.684939 657.571804,613.125939 658.455804,626.527939 C659.312679,639.514189 660.441136,652.502197 662.19466,665.400502 L662.553804,667.978939 L662.761804,669.334939 C664.192804,669.472939 665.598804,670.152939 666.767804,671.549939 C669.319804,674.596939 678.560804,671.634939 682.169804,670.350939 C688.104804,668.238939 693.693804,664.670939 698.850804,661.092939 C703.887039,657.599292 708.421904,653.525438 712.779711,649.234038 L716.345256,645.707655 C719.892058,642.183131 723.442701,638.428388 725.615804,633.994939 C728.562804,627.982939 728.943804,620.602939 729.807804,614.054939 C730.871804,606.000939 732.138804,597.947939 733.477804,589.933939 M376.453804,467.583939 L375.144804,467.927939 C327.593804,480.562939 280.113804,493.570939 232.416804,505.647939 C208.812804,511.625939 185.096804,517.168939 161.463804,523.031939 L157.63756,523.988893 C138.993648,528.700979 120.125919,534.372157 105.848804,547.894939 C105.321804,548.392939 104.556804,547.627939 105.052804,547.098939 C120.439804,530.718939 142.323804,523.784939 163.335804,517.773939 C167.219804,516.662939 171.108804,515.577939 174.993804,514.472939 C146.417804,504.285939 117.390804,495.422939 87.693804,489.101939 C80.046804,487.473939 72.310804,486.278939 64.669804,484.644939 C59.340904,483.504639 54.136744,481.856469 48.864139,480.489207 L44.716804,479.445939 L44.6617244,492.553564 C44.592702,511.118629 44.6256611,529.668558 45.572804,548.230939 L45.7520966,551.669504 C46.8571586,572.326817 48.5820672,593.413045 55.912804,612.890939 C61.869804,628.718939 71.364804,643.629939 83.781804,655.158939 C90.064804,660.991939 96.819804,665.532939 105.169804,667.774939 C112.922804,669.855939 121.045804,670.099939 129.015804,669.544939 C167.244804,666.877939 201.274804,646.110939 234.482804,628.916939 C288.799804,600.793939 343.122804,572.684939 397.494804,544.669939 C396.024804,543.664939 394.640804,542.506939 393.381804,541.205939 C386.090804,533.675939 382.244804,523.367939 379.718804,513.384939 C377.029804,502.758939 375.421804,491.369939 375.234804,480.399939 M445.636904,555.526039 C446.116904,555.268039 446.672904,555.591039 446.694904,556.133039 C446.862904,560.285729 444.567969,564.381553 442.853264,568.122586 L442.671904,568.522039 C440.588904,573.156039 438.307904,577.728039 435.948904,582.228039 C431.233904,591.219039 426.333904,600.114039 421.219904,608.883039 C410.935904,626.524039 399.507904,643.422039 385.999904,658.782039 C382.948904,662.252039 377.930904,657.803039 379.888904,654.067039 C389.328904,636.057039 400.333904,619.052039 411.661904,602.195039 C417.332904,593.755039 422.999904,585.307039 428.726904,576.905039 C431.116071,573.399206 433.535793,569.905873 436.020793,566.465549 L437.519904,564.408039 M1009.5918,215.449939 C961.874804,216.890939 914.213804,220.002939 866.723804,224.879939 C822.557804,229.414939 778.553804,235.451939 734.797804,242.977939 C725.658637,244.549606 716.530582,246.185856 707.414216,247.886689 L701.945804,248.914939 C692.827804,250.642939 681.688804,251.355939 673.570804,256.226939 C665.011804,261.361939 662.698804,272.093939 659.850804,280.943939 C656.502804,291.351939 653.239804,301.789939 650.064804,312.252939 C637.456804,353.795939 625.939804,395.698939 615.665804,437.878939 C610.565804,458.815939 606.040804,479.869939 601.272804,500.882939 C597.036804,519.552939 592.362804,538.011939 587.479804,556.494939 C588.081804,556.026939 588.819804,555.670939 589.710804,555.480939 C613.958617,550.322346 638.710391,548.079598 663.320631,545.229745 L665.701804,544.951939 C691.160804,541.957939 716.619804,538.985939 742.093804,536.121939 L910.752804,517.154939 C920.699804,516.036939 931.355804,515.884939 941.035804,513.215939 C957.493564,508.675799 961.351158,490.276065 964.112452,475.622812 L964.195804,475.179939 C972.520804,430.906939 979.147804,386.248939 986.911804,341.863939 M591.404804,505.028939 C584.856804,504.596939 575.894804,498.599939 570.926804,499.029939 C573.534804,503.405939 574.711804,508.396939 573.208804,513.726939 C569.025804,528.558939 550.108804,520.884939 540.996804,516.353939 C533.525804,512.636939 526.311804,508.088939 518.040804,506.347939 C508.670804,504.377939 502.322804,508.103939 494.406804,512.398939 C487.904804,515.925939 480.823804,518.458939 473.541804,519.769939 C469.669804,520.467939 465.991804,520.541939 462.320804,520.269939 C462.099804,520.449939 461.850804,520.616939 461.566804,520.765939 L459.624804,521.784939 C468.405804,522.186939 477.349804,524.896939 485.521804,527.377939 C493.989804,529.947539 502.302924,533.045779 510.571756,536.213907 L518.706426,539.340511 C538.77185,547.024343 559.542304,554.320877 581.257804,554.256939 C582.818804,554.252939 584.097804,554.684939 585.104804,555.389939 M554.769104,458.554939 C561.238104,457.763939 567.209104,458.611939 572.378104,462.822939 C578.612104,467.900939 582.800104,476.322939 591.762104,476.875939 C594.375104,477.036939 594.982104,480.710939 592.385104,481.478939 C585.714104,483.453939 580.313104,479.844939 575.768104,475.158939 L572.712291,471.966226 C568.220823,467.315488 564.078415,463.72007 556.457104,463.997939 C548.295104,464.295939 540.119104,466.181939 532.010104,467.140939 C522.824104,468.226939 513.640104,469.152939 504.425104,469.951939 C503.997104,469.988939 503.924104,469.314939 504.325104,469.215939 L514.646308,466.647281 M548.524704,432.108739 L549.59161,432.001959 C558.985363,431.089822 567.576286,431.05443 575.965704,436.107739 L577.574784,437.080793 C585.1387,441.678148 593.371571,447.094406 598.101704,454.537739 C598.875704,455.756739 597.596704,457.189739 596.301704,456.879739 C587.210704,454.697739 580.564704,448.027739 572.919704,443.035739 C564.339704,437.433739 555.476704,438.357739 545.693704,439.227739 C536.221704,440.070739 526.754704,441.228739 517.375704,442.807739 C508.562704,444.289739 499.721704,446.629739 490.819704,447.375739 L490.821704,447.357739 C489.804704,447.355739 489.224704,445.828739 490.261704,445.310739 C499.295704,440.799739 509.758704,438.664739 519.585704,436.603739 M833.889504,339.263939 C832.981504,334.920939 838.323504,332.906939 840.799504,336.351939 L841.326078,337.078487 C846.675277,344.406852 854.411375,353.602617 854.017504,362.922939 C858.719504,363.025939 863.594504,365.882939 865.426504,370.125939 C866.273504,372.088939 866.560504,374.414939 866.373504,376.822939 C870.647504,377.154939 875.308504,379.960939 877.921504,382.692939 C882.252504,387.221939 882.594504,393.621939 879.487504,398.913939 C872.713151,410.44961 857.914002,414.646064 845.420696,415.582861 L844.975504,415.614939 C832.071504,416.506939 813.477504,416.265939 804.629504,405.194939 C796.094504,394.515939 805.527504,385.869939 815.200504,381.174939 C812.682504,378.875939 811.378504,375.578939 812.604504,372.101939 C814.757504,365.990939 822.358504,363.629939 826.653504,359.381939 C831.889308,354.202118 835.349274,347.096946 833.969578,339.669389 M840.981504,348.654939 C839.558504,354.838939 836.062504,360.494939 831.193504,364.976939 C829.331504,366.690939 827.294504,368.216939 825.130504,369.527939 L824.870359,369.678928 C822.949857,370.757052 818.229225,372.776939 818.592504,375.195939 C818.966504,377.681939 826.657504,381.572939 828.753504,381.574939 C829.230504,381.574939 829.500504,382.319939 829.013504,382.535939 C825.214504,384.213939 821.896504,384.932939 818.181504,383.159939 C815.699504,385.693939 813.288504,388.315939 810.900504,390.914939 C806.677504,395.513939 808.122504,400.369939 813.112504,403.793939 C821.130504,409.295939 833.318504,409.161939 842.673504,408.761939 C852.089504,408.359939 862.154504,406.259939 869.509504,399.987939 L869.82985,399.708895 C873.827178,396.153801 877.478257,390.129641 871.356504,386.705939 C868.959504,385.364939 866.369504,385.443939 864.093504,384.791939 C861.963504,388.966939 858.508504,392.310939 854.292504,392.955939 C850.885254,393.477106 848.538742,389.194493 851.63819,387.146133 L852.334498,386.713543 C856.226461,384.229506 859.547504,380.403461 859.459504,375.420939 C859.399428,371.962151 854.569254,367.593572 851.422519,370.843502 L851.278504,370.998939 C848.6454,373.966969 844.007506,370.226817 845.739367,366.938091 L845.822504,366.788939 M226.862202,176.675539 C226.850504,175.932539 227.895504,175.654539 228.260504,176.297539 C234.372504,187.050539 237.567504,200.231539 240.823504,212.078539 C244.233504,224.488539 246.986504,237.024539 249.459504,249.652539 C254.468504,275.223539 257.137504,300.647539 257.318734,326.709539 C257.343504,330.430539 251.281504,331.420539 250.688504,327.607539 C246.751504,302.256539 242.979504,276.879539 239.012504,251.535539 C237.016504,238.788539 234.693504,226.090539 232.470504,213.381539 M287.370504,195.405039 C286.920504,193.922039 289.078504,193.426039 289.630504,194.782039 C301.896504,224.891039 306.050504,259.013039 298.175504,290.778039 C296.970504,295.637039 289.853504,293.532039 290.762504,288.734039 M445.587904,168.651239 C445.525904,167.541239 446.966904,167.366239 447.509904,168.130239 C453.321904,176.319239 455.732904,187.286239 465.929904,191.518239 C471.020904,193.631239 476.749904,193.263239 481.247904,196.832239 C484.254904,199.219239 486.560904,202.987239 484.303904,206.602239 C483.575904,207.770239 481.537904,208.355239 480.549904,207.086239 C479.107904,205.237239 478.344904,203.023239 476.385904,201.637239 C473.622904,199.682239 469.896904,199.561239 466.728904,198.642239 C462.630904,197.454239 459.018904,195.375239 456.060904,192.286239 M542.686104,32.0673393 C543.285104,31.7623393 543.860104,31.9573393 544.243104,32.4753393 C544.790104,33.2133393 544.723104,33.9313393 544.053104,34.4373393 C544.948104,36.2663393 546.005104,40.8483393 546.156104,41.5153393 C546.768104,44.2193393 547.419104,46.9073393 548.100104,49.5933393 C549.474104,55.0103393 550.678104,60.4693393 552.053104,65.8883393 C553.511104,71.6323393 555.248104,77.3153393 557.181104,82.9163393 C557.305771,83.2790059 557.442882,83.6492282 557.586808,84.0249319 L557.807104,84.5923393 L557.861104,84.5063393 C558.254104,83.8853393 559.072104,84.3193393 558.975104,84.9753393 C558.885104,85.5733393 558.764104,86.1683393 558.662104,86.7663393 L558.864655,87.3020656 C560.129079,90.7052293 560.995004,94.2893893 558.675104,97.2923393 C557.807104,98.4153393 556.852104,99.0803393 555.662104,99.2783393 C553.754104,105.568339 551.360104,111.741339 548.797104,117.669339 L548.045911,119.400576 C544.275795,128.050753 540.254917,136.587277 534.252104,143.951339 C527.698104,151.991339 518.683104,157.481339 512.974104,166.291339 C510.318104,170.389339 508.470104,174.698339 506.970104,179.326339 L506.405835,181.083016 C505.341145,184.356425 504.112771,187.529218 501.042104,189.449339 C500.062104,190.061339 498.594104,189.866339 497.804104,189.031339 C491.507104,182.370339 498.099104,169.932339 501.896104,163.483339 C507.174104,154.515339 514.813104,148.778339 522.462104,142.012339 C530.707104,134.719339 535.966104,124.963339 541.053104,115.352339 C544.169104,109.464339 547.177104,103.449339 550.344104,97.5353393 C547.035369,94.6109569 545.976229,88.8020434 544.855246,84.7643896 L544.753104,84.4023393 C542.900104,77.9363393 541.428104,71.3023393 540.498104,64.6393393 C539.603045,58.232751 539.22973,51.9182874 539.466532,45.4758497 L539.534868,43.834728 M554.988404,62.5591393 C554.257404,61.5571393 555.467404,60.4221393 556.470404,60.6311393 C562.568611,61.8921048 568.530713,65.5833771 574.00388,68.5681847 L574.588404,68.8851393 C578.957404,71.2411393 583.353404,74.1271393 585.647404,78.7041393 C588.142434,83.6786847 587.936888,89.4083009 587.59662,94.8143072 L587.564404,95.3201393 C587.147404,101.803139 587.080404,108.539139 585.708404,114.905139 C585.006404,118.163139 582.055404,119.081139 579.532404,118.311139 C576.530404,127.790139 568.097404,134.774139 561.937404,142.254139 C554.083404,151.790139 555.561404,164.665139 556.382404,176.150139 C556.714404,180.800139 550.930404,182.122139 547.951404,179.641139 L541.086145,173.938917 C539.942848,172.987139 538.801071,172.033473 537.662404,171.076139 C536.687071,170.255473 535.720626,169.428584 534.762182,168.591324 L533.330404,167.327139 C532.695404,166.759139 529.894404,163.630139 529.075404,163.500139 C527.091671,163.184806 522.378722,168.41282 520.765763,170.052547 L520.561404,170.257139 C517.525404,173.234139 514.782404,176.437139 512.227404,179.834139 C511.757404,180.458139 510.838404,179.940139 511.174404,179.219139 C513.463779,174.315077 516.12581,169.626346 519.286566,165.237817 L519.925404,164.364139 C522.028404,161.530139 524.851404,156.526139 528.563404,155.689139 C533.095967,154.667868 537.621818,159.213201 540.919588,161.735934 L541.128404,161.894139 C542.697404,163.071139 544.248404,164.269139 545.796404,165.475139 C545.634404,156.924139 546.714404,148.284139 551.129404,140.915139 C554.242404,135.718139 558.906404,131.869139 562.897404,127.403139 C567.340404,122.430139 569.660404,116.318139 573.682404,111.139139 C574.200404,110.473139 574.914404,110.114139 575.687404,110.000139 C575.841949,105.836503 576.455173,101.631544 576.929027,97.5129867 L577.066404,96.2801393 C577.545404,91.8051393 578.677404,86.3391393 576.486404,82.1481393 C574.416771,78.1896393 569.668085,75.395457 566.15162,72.7096392 L563.280367,70.4824487 M357.073804,15.2409393 C355.237804,16.3029393 353.521804,17.6239393 351.964804,19.2749393 C347.063804,24.4739393 343.559804,30.9439393 340.149804,37.1679393 C338.313804,40.5199393 336.543804,43.9089393 334.692804,47.2529393 C333.887804,48.7079393 333.059804,50.1469393 332.222804,51.5839393 C331.835804,52.2459393 330.685804,53.5619393 330.115804,54.3729393 C330.749156,55.2603563 331.40399,56.1341511 332.071961,56.9984954 C332.326817,57.3282752 349.907564,76.47963 356.035804,83.9749393 C365.419804,95.4559393 373.807804,107.582939 380.978804,120.562939 C388.000804,133.273939 393.346804,146.731939 399.851804,159.688939 C403.107804,166.175939 406.743804,172.616939 411.378804,178.230939 C411.557804,178.449939 411.746804,178.656939 411.929804,178.872939 C413.698742,174.094096 418.231492,168.9774 420.457732,166.039378 L420.665804,165.761939 C425.714804,158.955939 431.046804,152.354939 436.494804,145.865939 C441.470804,139.940606 446.573224,134.143273 451.799254,128.441632 L453.764804,126.307939 C457.405804,122.374939 462.030804,116.489939 467.360804,113.679939 C466.789804,112.661939 466.128804,111.654939 465.368804,110.660939 C460.374804,104.135189 453.315401,99.3992309 446.349619,95.1259155 L441.832264,92.378016 C424.804352,82.0012314 408.041706,71.1435246 393.258804,57.6609393 C385.437804,50.5269393 377.724804,43.0539393 371.150804,34.7329393 L368.825863,31.7908223 M385.485804,10.1039393 C377.511804,10.7729393 368.900804,10.6139393 361.531804,13.2119393 C368.082804,19.4049393 374.309804,26.0919393 380.706804,32.3889393 C381.275804,28.1299393 382.439804,23.9229393 383.425804,19.7699393" id="Ink" fill="#000"/></g></g><g id="Head" transform="translate(372.000000, 180.000000) scale(0.9978902953586498 1)"><g id="Head/Short 5" stroke="none" stroke-width="1" fill="none" fill-rule="evenodd"><path d="M242.041161,75.2596156 C298.821805,75.2596156 357.551668,119.271611 378.365264,147.356837 C395.864342,170.969555 405.286153,277.745152 405.286153,349.905008 C405.286153,364.996849 413.614596,393.445968 411.184129,407.881894 C402.277902,460.781042 363.475367,505.14576 286.676873,505.14576 C209.87838,505.14576 154.814935,474.704319 97.7325351,392.972519 C70.0358893,392.972519 56.6129701,371.732631 56.4152532,338.213866 C56.2871511,315.868022 65.1995229,300.630067 83.1523686,292.5 C76.7512999,204.313833 81.6113554,148.741029 97.7325351,125.781589 C121.914305,91.3424282 185.260516,75.2596156 242.041161,75.2596156 Z" id="Skin" fill="#ffdbb4"/><path d="M218.1465,56.5559 C253.9965,52.9259 289.1265,55.9759 324.4565,62.2869 C327.1565,62.7759 328.6865,64.5469 329.2555,66.6759 C345.8965,67.4359 362.5565,68.6569 379.1755,69.5669 C385.2065,69.8969 388.6255,75.8559 385.8755,81.2369 C385.3265,82.3059 384.7555,83.3459 384.1755,84.3859 L384.90416,84.145677 C389.903636,82.5418162 395.304128,81.751086 400.1755,84.2969 C406.3755,87.5369 408.8065,94.6859 407.4365,101.2659 C407.0855,102.9459 406.4965,104.5559 405.8265,106.1269 C407.1865,106.0369 408.5565,106.0669 409.9165,106.2469 C417.1565,107.2069 422.5365,112.7569 422.9165,120.1469 C423.4765,131.3059 416.2865,142.6269 407.8165,150.6159 C409.0455,153.1469 409.5165,156.1269 409.0055,159.1469 C407.9855,165.1169 403.5875,168.6919 398.4895,171.0239 C400.6155,177.7749 401.6205,184.8329 401.0275,192.0459 C400.8295,194.4539 398.7235,196.4429 396.5005,196.9309 C404.7865,219.7449 408.9805,244.2389 411.9965,268.1059 C414.1465,285.0869 415.2065,302.1669 415.3355,319.2759 C415.398611,327.000344 415.271302,334.73348 414.947253,342.459154 L414.8165,345.3559 C414.4165,353.7069 414.3965,362.4759 412.8965,370.7369 C418.0165,379.4459 420.0765,390.2569 420.9465,400.0159 C422.0265,412.0959 420.3165,424.5559 416.5055,436.0469 C402.1255,479.4659 358.7265,506.8659 315.1355,513.9869 C274.7865,520.5769 228.0965,511.7069 204.5165,475.0559 C204.1465,474.4759 204.9365,473.9969 205.3965,474.3769 C222.2665,488.0959 241.8355,494.2159 263.0965,497.1959 C299.8565,502.3369 341.1755,493.6159 370.6755,470.4969 C384.8355,459.3969 395.0455,443.2369 399.5365,425.8459 C401.8265,416.9569 402.6165,407.6859 401.7155,398.5369 C400.7955,389.2569 396.6865,381.3369 394.0965,372.5669 C393.2265,369.6059 394.1465,366.8559 395.9565,364.8969 C396.4655,357.7759 397.6665,350.5959 398.1255,343.4969 C398.6355,335.4259 398.9465,327.3559 399.0565,319.2759 C399.2665,302.5159 398.5665,285.7259 397.1565,269.0369 C394.5765,238.4759 387.7265,208.6569 383.7065,178.3559 C382.217833,179.690867 380.0844,180.239031 377.848178,179.072708 L377.6165,178.9459 L376.3965,178.2469 C376.3265,178.2469 376.2465,178.2569 376.1755,178.2659 C367.8265,179.0769 359.1665,177.9169 351.1665,175.4259 C342.7955,172.8269 335.0265,168.8269 328.0855,163.4969 C326.7665,170.1859 326.2155,176.9459 326.2065,183.7659 C326.1965,188.0259 321.6865,190.2369 318.1065,188.4169 C302.2365,180.3559 287.0765,171.0669 272.6865,160.6269 C271.0055,169.2369 269.3265,177.8459 267.6355,186.4659 C266.9865,189.7869 262.7555,191.1269 260.0455,189.5469 C249.2665,183.2759 239.9565,175.0669 232.3765,165.3059 C230.863167,168.1999 229.345389,171.093456 227.817241,173.980641 L225.5165,178.3059 C223.2465,182.5559 220.2065,187.2569 215.2365,188.6159 C209.9765,190.0559 205.5855,186.6469 203.8165,181.8859 C203.2765,180.4069 202.7765,178.8859 202.3165,177.3559 C197.8355,187.5869 192.7765,197.5869 187.0565,207.1269 C178.4765,221.4359 168.1755,234.1859 157.9065,247.2659 C154.7865,251.2369 149.4465,247.4459 149.0165,243.5869 C148.7665,241.3169 148.5565,239.0369 148.3755,236.7659 C142.3915,248.8419 136.1475,260.8049 129.3445,272.4209 L130.3185,276.2379 L130.3185,276.2379 C133.1255,287.5159 135.4565,298.8739 137.9905,310.2119 C138.8085,313.8699 136.8645,319.0999 132.5905,319.7229 C127.4845,320.4669 122.6535,323.0759 117.4235,321.2809 C111.7205,319.3229 110.5935,314.3939 107.9015,309.7219 C107.3645,308.7909 106.7395,307.9359 106.0675,307.1239 L105.8965,307.3459 L105.8965,307.3459 C105.4765,307.8969 104.4765,307.2969 104.7265,306.6669 L105.0195,305.9389 L105.0195,305.9389 C102.7065,303.4839 99.9385,301.4359 97.3935,299.2329 C91.3455,298.2139 84.5425,299.3299 80.3755,301.7869 C70.8855,307.3859 66.5265,318.9259 66.4365,329.5369 C66.3265,341.9569 70.1755,355.9169 76.6755,366.5369 C79.5365,371.2069 83.4565,375.4259 88.6355,377.4969 C93.7765,379.5559 99.3465,378.9169 104.5765,380.8559 C108.0365,382.1469 110.1665,385.9869 108.0765,389.4659 C107.9365,389.7069 107.7765,389.9259 107.6255,390.1569 L109.181019,392.221381 C110.250944,393.651456 111.3665,395.182567 112.4065,396.7759 C115.0665,399.8369 117.8665,402.7869 120.5765,405.7969 C125.5855,411.3459 130.4465,417.0469 135.3755,422.6759 C140.0265,427.9869 144.9465,432.9759 150.0165,437.8859 C154.8065,442.5369 160.7865,446.4459 165.1865,451.4069 C169.4655,456.2469 170.6265,464.6959 163.5855,467.4969 C155.796208,470.60315 148.900566,463.323034 143.657071,458.469499 L143.4365,458.2659 C133.8245,449.4209 125.1445,439.3129 118.2515,428.1839 C111.4235,432.8319 101.5475,433.2759 94.7485,428.6289 C91.1705,426.1839 88.4255,422.0749 87.0915,417.6049 C85.8335,417.8869 84.5765,418.0519 83.3505,418.0329 C82.7195,418.3989 82.0865,418.7549 81.4465,419.0869 C76.3755,421.7259 70.1465,420.5469 67.8265,414.9359 C65.7138913,409.84227 67.8908578,404.057449 69.7937681,399.149752 L70.1865,398.1359 C71.2665,395.3369 72.4565,392.2869 73.9365,389.4169 C69.8165,386.3169 66.2955,382.4659 63.3165,378.0869 C53.3065,363.3369 48.3065,341.7659 50.5165,324.1669 C51.8465,313.5469 56.8355,302.5469 65.0055,295.3859 L64.7065,294.6059 L64.7065,294.6059 C62.4165,288.7969 60.3355,282.9659 58.9865,276.8269 C57.4065,269.6469 56.6355,262.2069 55.9365,254.8969 C54.4565,239.4569 54.8565,223.6669 56.8265,208.2869 C60.5265,179.3369 69.9065,150.9169 86.5565,126.8269 C81.8355,121.1759 78.0965,114.5259 80.0455,106.8769 C80.9365,103.3659 82.9655,100.0369 86.0265,98.0259 C87.7155,96.9169 89.7265,96.7469 91.4165,95.8269 L91.9246563,95.5471104 C92.6669844,95.1139329 92.0991765,95.1598412 91.6565,93.1469 C89.9065,85.1059 91.3565,77.3369 100.2065,74.6669 C108.5365,72.1569 116.4165,77.4869 121.3465,83.8369 C134.2465,74.6859 151.2465,69.8969 166.1965,65.8269 C183.1965,61.2159 200.6355,58.3369 218.1465,56.5559 Z M78.8069,326.2562 C78.7459,319.7062 84.9559,315.6662 91.0669,316.7372 C95.1702571,317.451271 98.5933031,319.90018 101.807624,322.431371 L103.374768,323.671291 C107.288878,326.74416 111.782567,330.056933 114.1159,334.4072 C117.5359,340.8272 110.3069,349.4662 103.5569,344.9662 C98.9265667,341.8632 95.95861,336.891311 92.921411,332.272642 L92.6069,331.7962 C91.2269,329.7262 90.0169,327.5262 88.1259,325.8662 L87.7174162,325.508484 C87.0959496,324.978762 86.4285364,324.495291 85.6259,324.2662 C84.0775129,323.821039 81.2095629,324.444452 80.526766,326.287794 L80.4659,326.4762 C80.2159,327.4072 78.8169,327.2062 78.8069,326.2562 Z" id="Ink" fill="#000"/></g></g><g id="Face" transform="translate(531.000000, 366.000000) scale(1 1)" fill="#000"><g id="Face/Smile Big" stroke="none" stroke-width="1" fill="none" fill-rule="evenodd"><path d="M79.1996019,197.798966 C90.1214942,191.222404 130.944848,196.042976 163.01327,197.798966 C188.478595,199.193385 206.667356,196.429949 212.488767,200.348155 C225.641067,209.200546 219.252652,252.006116 196.589222,257.86012 C173.925792,263.714125 89.9129827,271.890526 75.4275085,257.86012 C60.9420343,243.829714 59.6047058,209.597931 79.1996019,197.798966 Z" id="teeth" fill="#FFF"/><path d="M93.3467129,186.476493 C110.488788,184.396013 127.104995,189.644043 143.862898,192.289481 C152.710839,193.685435 161.569756,194.727668 170.523469,195.115267 C172.32459,195.193982 174.126708,195.239817 175.928826,195.276684 C176.096465,193.690417 176.984552,192.233683 178.908408,191.360838 C182.851913,189.573299 186.008114,188.767213 190.337788,188.93959 C194.301251,189.096024 198.278683,189.503551 202.181276,190.217969 C209.268011,191.517272 216.386677,194.465615 221.570511,199.588099 C233.567668,211.441255 231.741602,230.480436 222.47157,243.39077 C203.319435,270.068282 168.364112,271.306425 138.426282,270.958393 L135.66356,270.922255 C108.404278,270.532663 69.4042864,274.596972 57.019963,243.583075 C52.465773,232.178299 53.0984103,218.959081 58.6743992,208.020619 C65.3250733,194.973778 79.3249167,188.178341 93.3467129,186.476493 Z M178.495298,230.894938 L178.250824,230.904902 C165.682896,231.389151 153.116964,231.72992 140.542051,231.952117 C140.918241,235.181444 141.302413,238.411767 141.741468,241.63412 C142.085726,244.169954 142.454931,246.702799 142.839103,249.232654 C143.001753,250.303783 143.598468,251.966772 143.429831,253.027936 L143.368962,253.44742 L143.368962,253.44742 C144.014571,253.739364 144.600309,254.209664 145.03637,254.892197 C145.188043,255.128344 145.297807,255.366483 145.407571,255.603626 C155.170541,255.680348 165.676909,255.491033 175.629471,253.716447 L175.649428,253.500229 L175.649428,253.500229 C175.830039,252.228824 176.358899,251.372918 177.061386,250.786039 C177.76088,246.731694 177.697017,242.411311 177.967435,238.38885 C178.136071,235.889883 178.318678,233.392909 178.495298,230.894938 Z M130.93774,232.123497 C121.87903,232.277607 112.816379,232.396289 103.759597,232.285698 L99.6481393,232.22214 L99.6481393,232.22214 C100.516269,236.880303 101.461234,241.522523 102.246542,246.211574 C103.065777,251.098909 98.7640436,254.205679 95.0410632,254.080133 C95.4591626,254.148884 95.8762641,254.219628 96.2943635,254.278416 C107.926308,255.92347 120.004291,255.487047 131.808863,255.474094 C131.173731,251.767293 131.431054,247.584788 131.336033,244.49078 L131.317921,244.011527 C131.13731,240.046857 131.010583,236.085177 130.93774,232.123497 Z M69.4062821,231.268587 C69.720605,233.690832 70.3322874,236.061264 71.2473164,238.268286 C75.1139873,247.592582 83.9788918,251.943854 93.3586871,253.776231 C91.7311928,253.214262 90.4389764,251.864142 90.1126792,249.551502 C89.299431,243.801286 89.0070608,237.955417 88.9851081,232.116522 C82.448189,232.055742 75.8673645,231.916246 69.4062821,231.268587 Z M212.584867,229.277783 C207.930891,230.375814 202.522541,229.872633 197.956377,230.079884 C193.678592,230.274182 189.398811,230.443569 185.121025,230.616943 C185.322591,233.537386 185.519168,236.456834 185.732708,239.375285 C186.008114,243.147649 186.034059,247.134239 186.756502,250.890661 C195.365957,247.952282 203.08034,243.240314 208.867873,235.705549 C210.309767,233.828335 211.600986,231.625298 212.584867,229.277783 Z M91.3799494,201.775194 C83.6326376,203.609563 76.3004317,207.484557 72.3599198,214.573932 C70.020958,218.780726 68.9921741,223.766703 69.1897485,228.679944 C75.7376439,227.917699 82.3982965,227.628744 89.0270178,227.389608 C89.0489705,226.195923 89.0771321,225.003566 89.1129808,223.813719 L89.2151053,220.764114 C89.3957906,214.947692 89.4865796,207.643706 91.3799494,201.775194 Z M131.479572,202.48463 L128.069104,202.101567 C118.596243,201.022247 109.128468,199.889225 99.6551242,200.538664 C98.2840775,200.633321 96.892076,200.782781 95.4970809,200.987043 C97.1714741,207.029203 97.0307772,214.125552 97.7302705,220.106932 C98.000688,222.419573 98.3419529,224.713282 98.7201382,226.998024 L100.363598,226.921301 L100.363598,226.921301 C110.528702,226.370293 120.703784,226.031517 130.876871,225.627976 C130.876122,223.71788 130.8866,221.806663 130.917143,219.894746 L130.954703,217.982611 C131.070454,213.099262 130.755133,207.598146 131.479572,202.48463 Z M179.049105,201.709432 C169.127476,203.310644 158.873564,203.651412 149.127558,203.663369 C145.234942,203.668351 141.344323,203.429215 137.455699,203.084462 C137.709153,205.154977 137.84087,207.249407 138.031459,209.291027 C138.415432,213.416914 138.854327,217.536423 139.331283,221.652107 L139.756743,225.25333 L139.756743,225.25333 C152.260808,224.686379 164.763876,224.073594 177.264948,223.438888 L179.029148,223.344231 L179.029148,223.344231 L179.523638,216.423284 C179.860246,211.808262 180.23056,207.194273 180.753433,202.600212 L180.361278,202.458723 L180.361278,202.458723 C179.900271,202.269408 179.463213,202.008351 179.049105,201.709432 Z M183.357823,203.427223 C183.904645,209.952636 184.206994,216.504952 184.609128,223.041325 L192.850339,222.601065 C194.223751,222.526187 195.597126,222.449797 196.970501,222.370749 C202.310997,222.062862 209.173215,220.445708 214.452843,221.954255 C214.855974,217.154604 213.48393,212.478506 209.152261,209.254161 C201.547641,203.590632 191.864499,205.607342 183.357823,203.427223 Z M155.2009,145.0937 C167.4729,138.0657 198.2639,130.8827 200.2139,152.9677 C201.11069,163.130663 193.55511,171.551452 184.732334,175.308984 L184.4009,175.4477 C176.1259,178.8497 161.4589,182.6917 154.2979,175.3147 C148.3379,169.1747 156.2429,158.1657 163.6489,163.1957 C167.454921,165.779721 175.466095,163.875752 179.713009,162.646215 L179.9789,162.5687 C184.5619,161.2217 190.6719,156.9107 188.7769,151.2677 C187.0999,146.2757 179.9639,145.3637 175.4949,145.2017 C168.8239,144.9627 162.3319,146.5117 155.7219,147.0157 C154.6749,147.0957 154.3519,145.5797 155.2009,145.0937 Z M206.0359,109.581 C222.6919,108.801 233.0529,126.987 229.2229,141.888 C228.5609,144.459 225.6849,146.983 222.9089,146.694 L222.209444,146.629632 C221.8541,146.59548 221.4971,146.5506 221.1689,146.46 C218.5329,145.73 216.1699,142.988 216.3619,140.146 L216.412906,139.317884 C216.801522,132.278753 216.038672,124.168709 207.6729,122.464 C200.5779,121.018 196.6169,127.847 196.5329,134.133 C196.5169,135.249 195.2629,136.028 194.2759,135.428 C189.1469,132.307 188.2589,126.098 190.2179,120.751 C192.7009,113.976 198.9149,109.914 206.0359,109.581 Z M82.4329,113.4814 C94.5539,109.4374 107.6309,115.8984 113.4999,126.6144 C115.5589,127.2104 117.6149,128.7974 117.3289,131.2274 C116.9159,134.7234 116.2939,136.9274 113.8699,139.5784 C110.078488,143.725503 102.977604,141.605092 101.401739,136.499971 L101.3349,136.2694 C99.5449,129.6704 92.2809,125.3164 85.6639,127.6264 C77.9339,130.3244 78.1579,138.4884 72.7359,143.2444 C72.0989,143.8034 71.3349,143.8924 70.5709,143.5234 C64.8119,140.7404 65.8469,132.3644 67.8999,127.5704 C70.5929,121.2794 75.8269,115.6844 82.4329,113.4814 Z M65.9254,76.6741 C75.7474,66.6521 101.3594,56.9541 108.0784,75.4611 C109.3584,78.9861 106.6334,83.7391 102.9634,84.4701 C96.9534,85.6661 91.6214,83.0571 85.6514,83.5251 C80.8184,83.9061 75.7774,85.5211 71.9134,88.5151 C61.2114,96.8071 58.8574,110.8321 51.4004,121.3861 C51.0374,121.9001 50.3324,121.6841 50.2654,121.0781 C48.5674,105.7131 55.1674,87.6501 65.9254,76.6741 Z M194.0206,66.8082 C200.5386,64.5062 207.9196,64.7032 214.4716,66.7452 C221.0716,68.8032 227.1306,72.7112 231.7986,77.8172 C233.9166,80.1352 235.8766,82.6932 237.4486,85.4162 C238.2836,86.8592 239.1616,89.8402 240.1106,91.6152 C245.245093,94.5796058 247.439689,101.334701 242.842821,106.140464 L242.6356,106.3512 L242.0206,106.9612 C239.5496,109.4072 235.8236,110.4672 232.4506,109.4902 C224.9026,107.3062 223.9856,101.3612 221.3726,95.0512 C219.6466,90.8832 216.6896,87.1952 213.1046,84.4862 C204.6316,78.0862 190.7386,76.0472 180.5376,79.0632 C179.9946,79.2242 179.3566,78.5322 179.7436,78.0302 C181.6766,75.5262 182.7906,73.4712 185.3786,71.4512 C188.0056,69.4012 190.8726,67.9202 194.0206,66.8082 Z" id="Ink" fill="#000"/></g></g><g id="Beard" transform="translate(494.999934, 517.999659) scale(1 1)" fill="#000"><g id="Beard/None" stroke="none" stroke-width="1" fill="none" fill-rule="evenodd" fill-opacity="0"/></g><g id="Mask" transform="translate(400.000000, 480.000000) scale(1 1)" fill="#000"><g id="Mask/None" stroke="none" stroke-width="1" fill="none" fill-rule="evenodd" fill-opacity="0"/></g><g id="Accessories" transform="translate(419.000000, 421.000000) scale(1 1)" fill="#000"><g id="Accessories/Glasses 2" stroke="none" stroke-width="1" fill="none" fill-rule="evenodd"><path d="M372.3111,95.4577 C360.1701,108.0027 339.9021,111.6027 323.7491,104.8747 C282.2731,87.5457 302.5741,33.4957 334.5611,18.9807 C338.5571,17.9847 343.8941,15.6217 348.7611,15.0857 C349.2011,14.8697 350.1591,15.4947 351.3201,14.9037 C386.5911,18.8417 394.6231,73.5937 372.3111,95.4577 M238.5331,98.6687 C224.9161,116.7297 199.6001,122.3017 178.9161,113.9057 C138.0541,97.8137 152.5471,49.8847 180.5041,31.0947 C239.5611,8.9037 263.9481,65.3677 238.5331,98.6687 M149.9531,58.6507 C149.9151,58.6327 149.8771,58.6237 149.8381,58.6057 C150.0541,58.5107 150.2701,58.4157 150.4851,58.3187 C150.4151,58.5017 150.3391,58.6827 150.2711,58.8657 C150.1651,58.7927 150.0721,58.7077 149.9531,58.6507 M400.4231,39.1277 C397.0891,39.1347 392.2731,39.6827 389.5131,41.9957 C382.7071,19.0427 357.5851,-2.2003 335.7371,13.2897 C318.5321,18.8227 305.7651,31.0937 298.5091,47.4077 C285.4261,39.6257 264.8541,42.9487 253.5091,53.2397 C246.0791,28.6887 227.7931,20.0917 206.0281,18.8227 C182.2721,14.9317 158.5941,38.0027 151.2061,56.5107 C145.0631,55.8117 135.8841,53.8567 130.1051,57.6477 C92.5981,47.8117 27.0231,42.3887 19.3981,47.8537 C13.9641,49.9387 10.9821,62.7647 18.5721,63.4567 C25.1861,62.5177 17.8001,54.0587 24.4671,53.1357 C59.9901,50.9337 94.4751,58.0877 129.6221,61.0897 C132.7601,65.3107 142.8991,66.7227 148.3081,65.0267 C139.7891,96.4227 158.1791,117.7827 185.7341,124.1807 C228.4011,133.9817 265.5221,95.8137 254.3651,56.1137 C267.2901,49.6837 282.1571,49.9597 296.2371,53.3467 C272.7091,139.9367 412.1661,136.0517 390.3851,44.9627 C404.8801,52.1727 408.0281,40.5827 400.4231,39.1277" id="Ink" fill="#000"/></g></g></g></svg>