<svg viewBox="165.0270270270271 229.95000000000005 767.5675675675676 1130.5875" xmlns="http://www.w3.org/2000/svg" overflow="visible" xmlns:xlink="http://www.w3.org/1999/xlink" width="767.5675675675676px" height="1130.5875px"><g id="Master/Character/Bust" stroke="none" stroke-width="1" fill="none" fill-rule="evenodd"><g id="Body" transform="translate(147.000000, 639.000000) scale(1 1)"><g id="Body/Gaming" stroke="none" stroke-width="1" fill="none" fill-rule="evenodd"><path d="M764.153488,391.111634 C764.153488,383.020001 752.953587,368.657203 752.933988,361.327691 C762.349988,359.644691 770.222302,346.88772 768.136302,338.89872 C764.461302,336.08972 754.828488,330.559691 750.844488,327.977691 C726.571488,328.713691 735.796488,294.945191 733.049488,277.780191 C730.283488,260.986191 728.229488,243.426191 724.181488,226.537191 C716.991488,213.023191 713.617488,197.873191 706.745488,184.427191 C703.676488,179.971191 698.716488,175.886191 697.231488,170.709191 C682.197488,154.289191 661.501488,144.447191 644.469488,130.540191 C651.079488,128.424191 650.638488,119.509191 650.211488,113.784191 C651.749488,106.315191 650.106488,96.9471915 643.294488,92.7391915 C640.992488,85.2391915 630.930488,82.6211915 625.046488,87.3991915 C621.181488,70.0761915 606.060488,59.5661915 590.220488,53.1381915 C590.234488,53.0871915 590.247488,53.0371915 590.262488,52.9861915 C574.287488,46.6461915 555.139843,43.4855199 539.20064,47.0494557 C547.614225,-46.699294 475.811356,-50.1406292 439.370601,-42.2622192 C420.731296,-38.2324429 392.763961,-25.6865863 386.410592,-8.24564655 C382.823688,1.6009355 372.530491,33.3569449 371.065097,43.4855199 C343.238097,27.6065199 310.978488,6.66819145 286.842488,38.6361915 C282.009488,44.2071915 276.661488,48.3451915 269.429488,50.2591915 C246.849488,56.1181915 216.879488,56.3141915 204.045488,79.3321915 C196.374488,93.5921915 203.273488,102.988191 201.212488,117.253191 C99.5694883,188.632191 14.6284883,451.585191 33.7004883,573.918191 C38.2884883,617.697191 60.6884883,695.186191 115.977488,685.525191 C144.177399,716.369281 617.501541,716.369281 666.308676,685.525191 C706.483676,696.033191 747.305488,679.767191 764.153488,641.289191 C785.548488,588.527191 762.875488,531.546191 758.857488,477.421191 C756.417309,463.75633 752.785658,452.909093 750.844488,438.919443 C750.035604,433.089966 752.825774,423.391724 750.844488,418.018191 C751.779322,414.520348 764.153488,399.203267 764.153488,391.111634 Z" id="Skin" fill="#ffdbb4"/><path d="M364.256867,37.0335779 L365.926377,37.7479085 L371.657958,40.2324123 L370.456374,42.9882574 C367.074715,50.7441244 363.273555,58.2053577 359.107419,65.2298745 L358.322005,66.541819 L357.117,68.535 L357.178076,68.602505 C357.697783,69.1782352 358.227598,69.7745731 358.769042,70.3923911 L421.848611,138.170306 C448.456713,166.735755 462.504382,181.76526 463.991618,183.258821 C470.194074,189.490005 476.292144,190.267667 481.872793,185.012119 L482.501475,184.416517 L483.535527,183.420518 L484.241417,182.728441 C487.884802,179.130376 491.505211,175.150863 496.709958,169.148466 L554.973539,86.5005692 L551.293612,78.2790415 C544.538609,63.095429 540.850055,54.2179923 540.227952,51.6467313 L539.948319,50.3853326 L539.365483,47.6722543 L542.024983,46.8800737 C551.61788,44.0226548 562.236508,44.7718478 574.28245,48.3345174 L574.978994,48.5431719 L576.985413,49.1634164 C585.146536,51.7001516 589.767549,53.4056619 594.50013,55.9331953 C600.940827,59.3729838 605.695749,63.6436679 608.663033,69.2105419 C612.076209,75.6164967 614.687883,78.835889 619.086876,81.4392147 L619.431753,81.6401458 L619.859003,81.8801541 L620.309128,82.1228645 C620.698662,82.3288611 621.130398,82.5474677 621.650267,82.8031728 L623.49716,83.6953339 C629.327165,86.4894194 632.004864,88.2788994 634.299157,91.8073839 C636.832885,95.7024259 637.26197,99.3492961 636.479799,104.625607 L636.40981,105.081897 L636.287302,105.827694 L635.811049,108.568961 L635.69767,109.264258 C635.387849,111.225872 635.336093,112.951595 635.558531,114.402054 L635.614738,114.731871 L636.891201,121.520642 L634.357,119.912 L641.366494,125.624717 C651.176025,133.654706 657.022461,138.63688 663.135106,144.255839 L664.824904,145.818875 L665.15682,146.128086 C676.172676,156.401869 685.119268,166.30826 692.607386,176.883056 C700.729404,188.34818 707.610422,200.887459 713.167914,214.243018 L713.797219,215.77246 L713.848265,215.972514 C722.172002,248.593956 728.858394,281.639241 733.890467,315.003578 L734.372277,318.233378 L736.815239,334.792248 L728.773343,320.112597 C727.521668,317.827794 724.056321,315.564312 719.733864,313.87733 L719.326164,313.720881 L719.030247,313.610471 L718.412331,313.389547 C713.669356,311.738862 708.886826,311.583167 704.405793,312.972314 L703.943327,313.121531 L702.583353,313.577642 L701.374492,312.805487 C699.146084,311.382102 696.649757,310.178593 693.906786,309.188089 L693.215917,308.944896 L690.322069,307.952137 L691.371369,305.078307 C692.164521,302.906019 690.709827,298.641669 688.613363,296.81222 C685.347877,293.978983 680.653955,293.184926 673.364209,293.721541 L672.376757,293.800913 L671.594205,293.871913 L670.420853,293.9881 L666.721,294.385 L666.720683,294.402304 C666.674769,295.041105 666.64561,295.628106 666.63351,296.182405 L666.627638,296.592295 L666.628192,296.991713 C666.644496,298.368614 666.763023,299.640802 666.991923,300.827729 L667.096804,301.331249 L667.931131,305.05452 L664.116127,304.986761 L662.452735,304.962008 C656.882693,304.895012 651.033346,304.982645 644.146474,305.209811 L637.34848,305.462611 L620.007973,306.196247 L604.797278,306.730035 L600.264199,306.881196 L600.047896,304.012823 C599.762509,300.228347 596.526507,297.714649 590.794442,296.598622 L590.425181,296.529285 L584.436882,295.445606 L589.35581,290.981923 L589.753738,290.608429 L590.164558,290.207564 C594.120709,286.269405 595.449009,282.66194 593.82069,279.175541 C591.914977,275.090501 586.038663,273.895239 580.640928,276.115252 L580.269769,276.271158 L579.887568,276.442261 C578.87246,276.911947 577.864813,277.502473 576.257651,278.538733 L574.205349,279.874289 L573.459507,280.350088 C571.680638,281.471656 570.504184,282.104641 569.016653,282.719204 C565.080833,284.348143 561.405152,284.461847 555.375773,283.709285 L554.837594,283.640651 L553.557577,283.47039 L550.291771,283.01525 L549.483178,282.90852 L548.662715,282.806887 C542.499952,282.073703 538.598381,282.470232 535.304191,284.574565 C533.1963,285.920828 532.003145,287.644108 530.160892,291.666567 L529.286174,293.60694 L528.900664,294.439984 C526.684742,299.156876 525.003122,301.42043 521.693479,303.384336 C519.580896,304.64141 517.579575,305.392222 514.045484,306.420079 L511.529065,307.146608 L510.635291,307.416614 C510.095269,307.584442 509.647255,307.734238 509.173378,307.903897 C505.324493,309.272308 501.842774,311.237824 498.570464,313.874242 L498.06257,314.287516 L497.511543,314.746678 C494.326255,317.435359 491.603538,320.347529 486.954669,325.809909 L483.568031,329.805301 L482.36507,331.206459 L481.370226,332.345237 C481.263594,332.466055 481.157743,332.585563 481.052149,332.704356 L480.106146,333.757533 C472.731872,341.8525 465.354195,349.315719 457.840296,356.234361 L456.263078,357.676228 L454.639118,359.138219 L453.302771,360.323218 C448.931819,364.172366 444.212212,368.067555 436.880551,373.954023 L427.792469,381.233923 L424.933769,383.54093 C416.346622,390.495509 411.115994,394.98215 405.786296,400.047987 L404.464,401.314 L404.370365,401.856757 C404.319561,402.160743 404.263444,402.510525 404.202591,402.90257 C400.734197,424.300857 400.574469,443.77392 403.723408,461.321761 C408.446816,487.643522 410.120714,476.941947 414.900928,483.402705 L416.008571,484.888788 C418.629614,488.377052 420.6511,490.844912 422.843069,493.137218 L425.432406,495.80964 L428.410633,498.223084 L430.291249,499.35979 C431.64999,500.181057 433.005216,500.825664 434.363041,501.288968 C436.236683,501.932589 438.739646,500.662815 439.969834,498.426542 L440.084847,498.207143 L440.886878,496.599263 L442.682943,496.54748 C443.104214,496.535334 443.533213,496.47058 443.95264,496.353974 C448.204098,495.182779 450.319144,490.120295 448.240664,486.18863 L448.125293,485.979115 L447.048673,484.066777 L446.496433,483.105311 C445.703685,481.746987 444.970494,480.598624 444.228971,479.586425 L443.950376,479.213089 L439.815976,473.775952 L450.223184,474.746521 L451.074109,474.830821 L452.243683,474.954522 L455.991651,475.381084 C459.892373,475.818569 463.659069,476.215648 467.33348,476.575189 L470.461348,476.874242 L475.933862,477.373714 L477.057418,477.485967 L479.488493,477.742786 L485.311306,478.373073 L487.385418,478.586041 L488.540231,478.698091 C489.652177,478.803048 490.648858,478.887886 491.650298,478.963046 L492.750439,479.041701 C501.136622,479.612692 507.680803,479.234242 513.622421,477.56062 C523.286747,474.825385 533.003738,469.178288 543.523009,460.827701 C554.275323,452.290985 562.051555,444.25198 566.730657,435.91083 C566.818567,435.753791 566.831375,435.629793 566.7706,435.477975 L566.725316,435.383059 L564.94743,432.121446 L568.510199,431.069934 C571.357087,430.229707 573.772893,429.159119 575.803632,427.788229 C582.052836,423.583345 584.145272,415.167668 579.613708,410.769243 L579.412502,410.580564 L579.137391,410.331299 L575.309949,404.595167 L580.84664,403.778474 C582.69782,403.493026 584.324263,403.169861 585.843909,402.77366 C595.962135,400.14444 601.161055,392.076316 596.680929,384.312856 L596.531401,384.059815 L594.722981,381.069815 L597.952259,379.734806 C598.64458,379.448595 599.360401,379.178803 600.152889,378.900825 L600.638006,378.732859 L601.123478,378.568707 L602.938794,377.968175 C606.777699,376.702119 610.534909,375.738527 614.281228,375.080587 C617.242313,374.571651 620.206391,374.243134 623.172139,374.095094 L624.28437,374.048038 L625.525,374.005 L625.532491,373.968671 L626.258,373.979 L628.795344,373.891515 L628.745534,374.021872 C632.509689,374.11481 636.292661,374.481695 640.07663,375.118727 L640.971354,375.272205 C642.285549,375.502223 643.534388,375.74046 644.86842,376.012443 L650.643446,377.236331 C651.694353,377.454001 652.610388,377.633013 653.519619,377.796114 L654.398521,377.949214 L663.700148,379.52186 L655.198724,383.61078 L654.979961,383.719406 L654.761434,383.833661 L653.823253,384.351433 C648.045673,387.61562 644.627262,391.338909 643.824691,395.932245 C642.573482,403.098152 646.648887,406.397575 656.258579,407.512197 L657.060883,407.598924 L657.908125,407.677471 L658.464432,407.722007 L682.528629,409.351782 L659.743696,413.723493 C654.22541,414.782278 648.650294,416.212926 643.020548,417.997691 C642.582845,418.135535 642.110717,418.305787 641.598444,418.509616 L641.206623,418.668802 L638.89,419.628 L636.667886,421.233767 C632.767963,424.126847 631.680211,426.996772 633.626554,429.846547 L633.760808,430.036502 L634.967192,431.687799 L633.871049,433.414244 C630.723277,438.372047 631.134966,444.689138 634.897944,449.823589 C638.038124,454.107306 643.119252,456.833249 650.050209,458.395715 L650.587007,458.513616 L652.109,458.839 L654.330389,459.188467 L655.941442,459.409392 L657.177474,459.554061 L658.011231,459.640155 L659.293022,459.759167 L662.790653,460.053985 C667.760001,460.477946 670.311905,460.820328 673.373845,461.585266 C677.485222,462.609863 681.10587,464.279641 685.923909,467.126925 L686.485246,467.460713 L687.671708,468.177137 L689.97356,469.591558 L692.200108,470.975429 L692.951733,471.437404 L693.880094,471.998287 C700.737202,476.091121 705.256495,477.62812 710.013529,476.909553 C713.035607,476.455354 715.571572,475.349894 717.820567,473.592494 L718.173315,473.309591 L721.624,470.47 L721.522688,469.893665 L722.273194,468.861719 C723.711087,466.884616 729.83619,455.350769 729.840472,455.343252 C733.793717,448.402379 737.603534,443.608649 742.418264,440.437042 L742.833443,440.16915 L743.778988,439.590279 L744.859676,439.361344 L745.404578,439.446404 C746.989493,439.693813 747.459229,440.397766 747.906725,441.588828 C748.021079,441.893195 748.11262,442.22929 748.202051,442.636185 L748.28548,443.040153 L748.370549,443.499977 L748.502357,444.298416 L748.640763,445.232743 L748.797296,446.383765 L748.966012,447.714189 C749.097965,448.785669 749.243058,450.030072 749.407727,451.495893 L751.221551,468.208495 L751.719846,472.647046 L752.180594,476.605331 C752.218695,476.92621 752.256774,477.245258 752.29487,477.562785 L752.686656,480.768728 L753.113863,484.12204 C754.215523,492.5713 755.30428,499.366834 756.432799,504.522633 L756.640167,505.449563 L756.779936,506.051316 L757.14182,507.592173 C763.613894,535.306807 766.895323,558.191375 767.063699,581.117146 C767.205152,605.762056 761.830006,627.758373 750.172434,645.888734 C739.058413,663.188851 722.837356,675.744733 704.558733,680.076964 C694.92322,682.35185 685.36644,681.855081 677.663433,678.023344 C676.256979,677.323828 675.258655,676.606263 673.435903,675.082383 L672.830417,674.572564 C670.423125,672.534751 669.36105,671.826085 668.079722,671.526881 C667.921555,671.489519 667.768487,671.461165 667.619845,671.441517 L667.400119,671.418536 L664.677071,671.210724 L664.628869,668.480184 C664.526137,662.660572 661.749213,660.385354 662.009897,669.464764 C662.344217,678.187509 662.55678,683.099064 662.647585,684.199429 L662.743123,685.283712 L662.78,685.666 L661.171569,691.279852 C590.967074,718.090983 183.97712,718.555533 121.183678,692.330426 L119.386904,691.527556 L108.283207,686.198879 C123.117156,682.74306 125.462852,681.655989 115.320295,682.937666 C99,685 80,675 69.7020427,658.161827 L65.9478387,651.968018 L64.7988426,650.044035 L64.1619811,648.962044 C62.6315058,646.344381 61.5412135,644.34091 60.3869699,642.036572 C55.7302045,632.737753 51.8635229,622.731138 48.6842939,611.967086 C42.7680887,591.938227 39.6687898,570.23967 38.7435347,545.699331 C37.0688998,501.309593 41.6498831,454.458627 51.7658112,405.645498 C61.577379,358.29758 76.4456342,312.276068 96.0634486,268.757339 C105.870106,247.003044 116.679598,226.197225 128.530188,206.363215 L129.80388,204.241862 L131.190813,201.950364 L132.614582,199.61477 L134.045642,197.286691 L135.350304,195.183617 L136.664852,193.085052 L137.991041,190.989753 C150.097597,171.965479 160.861132,157.926638 173.302813,145.814566 C184.358804,135.052136 196.006232,124.133032 208.245098,113.057256 L207.982211,108.420033 L207.971488,108.334768 C207.712406,106.8089 203.10462,93.7717362 207.760224,83.6139951 L208.290795,82.4730603 C212.503479,73.5554714 213.11617,75.8486809 217.147205,73.036161 L217.312515,72.9193025 C226.151916,66.5880751 237.416461,62.2476853 250.772421,59.3524209 C254.198011,58.6093274 257.422357,58.2775977 261.964345,58.0966745 L262.592017,58.0729134 L263.414968,58.0448741 L266.947369,57.9377715 C273.602445,57.7246261 278.592234,55.3781018 282.439845,50.5213917 L282.725087,50.1557733 L283.013127,49.7740634 L283.283158,49.4033437 C284.222539,48.0907371 285.120587,46.5915019 286.569298,44.0170581 L287.561655,42.2568502 L288.038582,41.4247375 L288.527115,40.5871969 C290.188162,37.7701821 291.367404,36.1124007 293.034262,34.2994422 C298.069454,28.8245272 305.881302,25.6104725 314.117103,25.0745977 C328.721979,24.1218053 343.10003,28.0375964 364.256867,37.0335779 Z M555.927889,318.698826 L554.738334,324.553564 C554.625986,325.106513 554.564131,325.649039 554.554406,326.177789 L554.556913,326.571716 L554.641086,329.242042 L551.998313,329.633805 C549.860384,329.95073 547.740765,330.281489 545.641911,330.625957 L543.550071,330.974991 L523.821161,334.321238 L541.857984,325.259364 L542.224458,325.080339 L542.323578,325.029711 L543.016636,324.698867 L545.18572,323.690924 L550.521612,321.241495 L555.927889,318.698826 Z" id="Top" fill="#78E185"/><path d="M540.416988,16.7496915 C541.534988,21.5366915 540.513988,26.9336915 540.700988,31.8466915 C540.878988,36.5416915 541.432988,41.2096915 542.248988,45.8356915 C550.830988,41.3216915 560.972988,40.7416915 570.752988,42.1946915 C583.403988,44.0746915 598.042988,48.2346915 607.957988,56.6866915 C610.405988,58.7746915 612.433988,61.2466915 614.131988,63.9716915 C616.169988,67.2416915 617.470988,70.9356915 620.701988,73.2786915 C625.699988,76.9036915 631.895988,78.3066915 636.700988,82.3236915 C641.599988,86.4186915 644.640988,92.5406915 645.283988,98.8586915 C645.626988,102.221691 645.071988,105.365691 644.433988,108.645691 C643.861988,111.596691 644.142988,112.807691 644.919988,115.648691 C645.529988,117.878691 644.365988,120.409691 642.467988,121.639691 C646.536988,124.432691 650.550988,127.311691 654.494988,130.307691 C677.473988,147.747691 696.904988,169.487691 710.374988,195.067691 L710.700533,195.702902 L711.077468,196.466658 C714.360115,203.210592 722.948881,222.92695 724.015988,227.359691 C724.778988,229.674691 725.517988,231.998691 726.204988,234.336691 C728.019072,240.533358 729.557544,246.80649 730.832729,253.131439 L731.173988,254.857691 C732.208988,260.169691 733.989988,266.461691 733.702988,272.123691 C736.685988,287.581691 739.328988,303.104691 741.584988,318.692691 C741.879988,320.734691 741.066988,322.393691 739.804988,323.494691 C742.821988,323.979691 745.819988,324.575691 748.784988,325.176691 L750.50738,325.538977 L751.369382,325.729445 C757.544728,327.122201 763.639356,329.150365 767.683988,334.336691 C772.044988,339.947691 772.133988,347.157691 767.753988,352.807691 C764.034988,357.607691 758.603988,359.887691 752.933988,361.327691 C751.814988,361.607691 750.683988,361.867691 749.553988,362.096691 C748.794988,362.256691 748.294988,361.217691 749.013988,360.817691 L750.21726,360.152793 L751.858865,359.253105 C756.132966,356.896977 760.569015,354.237955 762.933988,349.987691 C766.144988,344.217691 763.603988,338.876691 758.093988,335.947691 C753.481396,333.492136 747.775519,332.863357 742.653325,332.024528 L740.538035,331.675078 C735.182945,330.820321 729.720206,330.264952 724.314988,330.876691 C719.584988,331.416691 714.794988,333.027691 710.973988,335.916691 L710.620205,336.19479 L710.2546,336.502086 C706.90404,339.405549 702.085889,345.927783 708.404988,347.807691 C713.234988,349.235608 719.120233,348.880905 724.196595,349.157795 L724.853988,349.197691 C729.103988,349.487691 733.544988,349.487691 737.843988,349.997691 C739.383988,350.176691 740.904988,350.426691 742.394988,350.777691 C746.664988,351.787691 745.194988,357.467691 741.433988,357.867691 C740.513988,357.967691 739.574988,358.016691 738.633988,358.037691 C736.173988,359.887691 732.773988,360.727691 729.864988,361.876691 C727.084988,362.977691 724.294988,364.067691 721.484988,365.137691 C723.904988,365.247691 726.324988,365.447691 728.734988,365.747691 C729.513988,365.836691 729.523988,366.887691 728.734988,366.967691 C722.933988,367.557691 717.133988,368.197691 711.353988,369.006691 C702.404988,370.247691 693.513988,371.907691 684.824988,374.436691 C678.47356,376.293834 672.199733,378.504498 666.1148,381.084694 L664.273988,381.876691 L663.514471,382.208253 C657.991801,384.601907 650.847388,387.40298 647.673988,392.676691 C646.013988,395.426691 645.284988,399.676691 647.624988,402.307691 C650.127357,405.141113 655.369621,404.817491 658.874689,404.955425 L659.154988,404.967691 C666.574988,405.327691 674.003988,405.376691 681.433988,405.117691 C697.003988,404.567691 712.584988,402.867691 727.874988,399.876691 C730.694988,399.327691 731.914988,403.557691 729.074988,404.217691 C711.039294,408.407969 692.806049,410.70687 674.300819,410.813893 L672.273988,410.817691 C665.065551,412.195816 657.995981,414.250699 650.986176,416.570353 L649.584988,417.037691 C645.444988,418.436691 638.374988,419.827691 635.933988,423.936691 C634.314988,426.666691 634.883988,428.537691 636.484988,429.807691 C639.303988,432.037691 645.303988,432.456691 648.223988,432.567691 C659.923988,433.006691 671.633988,433.086691 683.343988,432.836691 C689.194988,432.706691 695.044988,432.497691 700.894988,432.197691 C706.614988,431.897691 712.723988,431.047691 718.423988,431.596691 C720.874988,431.836691 721.694988,435.436691 719.034988,436.107691 C712.005359,437.88821 704.121688,437.732531 696.859135,437.959654 L696.023988,437.987691 C688.223988,438.266691 680.414988,438.387691 672.614988,438.367691 C665.919845,438.34112 659.226172,438.205814 652.538376,437.959884 L646.625548,437.725443 L645.578365,437.675341 C642.427276,437.506493 639.208588,437.143411 636.414988,435.846691 C633.834988,440.166691 635.763988,445.956691 639.093988,449.376691 C642.263988,452.637691 646.834988,454.237691 651.213988,455.237691 C651.624988,455.327691 652.034988,455.416691 652.444988,455.497691 C662.064988,457.456691 671.864988,457.287691 680.864988,461.706691 C688.433988,465.426691 695.364988,471.626691 703.843988,473.096691 C711.423988,474.416691 716.933988,471.077691 720.973988,464.897691 C721.194988,464.557691 721.414988,464.217691 721.624988,463.876691 C724.803988,458.756691 727.093988,453.117691 730.444988,448.096691 C732.154988,445.537691 734.084988,443.077691 736.444988,441.077691 C737.503988,440.166691 744.923988,436.227691 746.084988,435.047691 C751.074988,429.926691 746.654988,419.157691 747.954988,412.737691 C749.473988,405.266691 756.044988,402.637691 759.984988,396.846691 C767.473988,385.827691 746.933988,375.506691 753.074988,363.456691 C753.154988,363.307691 753.253988,363.197691 753.383988,363.126691 C753.923988,362.836691 754.784988,363.197691 754.734988,363.907691 C754.053988,372.887691 762.614988,379.067691 765.704988,386.846691 C769.223988,395.697691 763.603988,401.057691 757.864988,406.967691 C750.503988,414.557691 755.683988,423.057691 754.044988,432.197691 C753.830988,433.395691 753.486988,434.451691 753.039988,435.396691 C754.297988,436.176691 755.267988,437.468691 755.480988,439.272691 C758.004988,460.672691 760.717988,482.006691 765.147988,503.110691 L766.095854,507.594436 L767.364894,513.575956 C770.522377,528.536527 773.469718,543.557367 774.029988,558.851691 C775.788988,571.758691 776.486988,584.773691 775.444988,597.766691 C772.284988,637.317691 750.173988,678.697691 710.003988,690.836691 C700.704988,693.647691 690.843988,694.376691 681.303988,692.407691 C678.034988,691.737691 673.454988,690.256691 669.343988,688.016691 C669.588988,690.652691 669.782988,693.288691 669.863988,695.918691 C671.218632,697.427396 671.831241,699.705311 671.059725,701.65395 C667.783938,700.576432 664.806344,698.869763 662.125116,696.534689 L661.680988,696.139691 C660.09138,690.233213 659.626363,683.770691 659.395383,677.548297 L659.334988,675.777691 C659.273988,674.057691 659.234988,672.367691 659.173988,670.717691 C658.834988,660.447691 659.074988,650.157691 659.603988,639.897691 L659.994023,632.34476 C660.887426,614.728098 661.614113,597.153066 661.124988,579.487691 C660.564988,559.157691 658.824988,538.916691 656.644988,518.697691 C655.513988,508.266691 654.234988,497.857691 652.923988,487.447691 C651.874988,479.067691 650.114988,470.047691 650.084988,461.407691 C643.353988,459.967691 636.744988,457.206691 632.603988,451.557691 C628.213988,445.567691 627.564988,437.907691 631.463988,431.766691 C627.694988,426.607691 630.784988,421.747691 635.444988,418.467691 C628.284988,414.456691 624.294988,403.516691 623.234988,395.907691 C622.513988,390.686691 622.284988,382.876691 624.513988,377.006691 C621.314988,377.117691 618.114988,377.447691 614.914988,377.997691 C611.213988,378.647691 607.584988,379.596691 604.003988,380.777691 L602.191289,381.377359 C601.27656,381.683691 600.246845,382.044834 599.223988,382.467691 C605.694988,393.166691 597.383988,402.867691 586.723988,405.637691 C584.694988,406.166691 582.624988,406.537691 580.534988,406.836691 C575.824988,407.487691 571.013988,407.686691 566.343988,408.117691 C557.404988,408.936691 548.414988,410.107691 539.444988,410.487691 C537.473988,410.577691 536.204988,409.657691 535.603988,408.376691 C535.584988,408.357691 535.574988,408.346691 535.574988,408.327691 C535.364988,407.987691 535.223988,407.626691 535.173988,407.247691 C535.204988,407.277691 535.244988,407.297691 535.273988,407.317691 C534.843988,404.916691 536.284988,401.997691 539.444988,401.647691 C552.394988,400.186691 565.523988,400.117691 578.513988,399.047691 L579.346491,398.978556 C583.42392,398.62665 588.226633,397.979627 591.454988,395.397691 C594.454988,392.997691 594.723988,389.876691 593.523988,387.057691 C593.503988,387.126691 593.484988,387.206691 593.473988,387.277691 C593.383988,387.836691 592.614988,387.817691 592.364988,387.426691 C591.614988,386.287691 591.423988,385.166691 591.614988,384.086691 C590.713988,383.047691 589.624988,382.126691 588.444988,381.416691 C583.213988,378.237691 576.334988,377.367691 570.383988,376.426691 C563.874988,375.397691 557.314988,374.926691 550.744988,374.617691 C537.814988,374.006691 524.843988,375.057691 512.124988,377.376691 C511.593988,377.467691 511.374988,376.727691 511.894988,376.557691 C516.853988,374.916691 521.923988,373.537691 527.053988,372.447691 C526.933988,372.426691 526.814988,372.407691 526.694988,372.376691 C526.244988,372.266691 525.923988,371.717691 526.074988,371.277691 C526.093988,371.206691 526.124988,371.137691 526.154988,371.077691 C523.973988,370.077691 523.064988,366.717691 525.704988,365.357691 C533.933988,361.107691 543.593988,359.186691 552.624988,357.436691 C561.294988,355.766691 570.053988,354.596691 578.824988,353.557691 C593.654988,351.817691 609.824988,351.857691 624.093988,347.176691 L624.680761,346.979924 C630.491795,344.975625 637.428759,340.915232 637.834988,334.057691 C638.433988,323.686691 623.023988,326.387691 616.603988,326.637691 C599.034988,327.307691 581.484988,328.527691 563.994988,330.407691 C560.423988,330.787691 556.853988,331.176691 553.284988,331.577691 C547.814988,332.186691 542.334988,332.827691 536.874988,333.506691 C533.824988,333.887691 530.704988,334.387691 527.564988,334.867691 C526.584988,335.107691 525.624988,335.277691 524.664988,335.367691 C524.593988,335.376691 524.534988,335.357691 524.484988,335.327691 C519.914988,335.967691 515.324988,336.456691 510.864988,336.317691 C510.353988,336.307691 510.034988,335.506691 510.574988,335.266691 C516.334988,332.827691 522.744988,331.387691 529.173988,330.256691 C533.154988,327.287691 537.963988,324.907691 541.914988,322.607691 C547.334988,319.447691 553.544988,314.797691 559.694988,312.907691 C562.463988,310.727691 565.603988,308.977691 568.494988,307.787691 C567.664988,306.497691 567.364988,304.706691 567.513988,303.197691 C568.064988,297.787691 572.394988,294.766691 577.394988,293.706691 C578.944988,293.387691 580.734988,293.147691 582.644988,293.057691 C582.683988,292.047691 583.133988,291.057691 584.133988,290.317691 L584.429249,290.093731 L584.638832,289.926608 C587.995353,287.201251 594.65817,279.527893 586.633988,278.967691 C582.374988,278.666691 578.773988,281.787691 575.383988,283.897691 C568.343988,288.287691 561.534988,288.506691 553.494988,287.416691 L549.880709,286.898078 L549.279792,286.817058 C543.466953,286.054411 537.570265,285.949241 534.324988,291.876691 C530.843988,298.217691 529.624988,303.997691 522.603988,307.487691 C515.894988,310.817691 508.444988,311.477691 502.284988,316.057691 C495.683988,320.956691 490.723988,327.836691 485.324988,333.936691 C473.414988,347.376691 459.784988,359.247691 445.744988,370.407691 L443.247442,372.386815 C430.317559,382.604946 416.971049,392.66557 402.494988,400.537691 C402.394988,400.586691 402.293988,400.607691 402.204988,400.607691 C401.814988,400.567691 401.523988,400.067691 401.874988,399.727691 C418.784988,383.297691 438.564988,369.977691 455.933988,353.987691 C463.633988,346.897691 470.963988,339.436691 478.013988,331.697691 C484.173988,324.907691 489.633988,317.277691 496.814988,311.497691 C500.303988,308.686691 504.074988,306.537691 508.293988,305.037691 C512.234988,303.626691 516.654988,302.926691 520.284988,300.766691 C527.394988,296.547691 526.704988,286.547691 533.814988,282.006691 C539.911142,278.112461 547.337732,279.535353 554.097184,280.459553 L554.904988,280.567691 C559.284988,281.147691 563.814988,281.637691 567.994988,279.907691 C572.133988,278.197691 575.463988,274.997691 579.633988,273.297691 C585.444988,270.907691 593.683988,271.477691 596.664988,277.867691 C599.513988,283.967691 595.624988,289.487691 591.084988,293.537691 C597.273988,294.657691 602.704988,297.647691 603.164988,303.747691 C607.704988,303.596691 612.234988,303.436691 616.773988,303.277691 C632.584988,302.727691 648.473988,301.666691 664.294988,301.947691 C663.933988,300.336691 663.773988,298.676691 663.753988,296.987691 C663.744988,296.047691 663.784988,295.107691 663.853988,294.147691 C663.973988,292.506691 665.053988,291.516691 666.654988,291.346691 L670.228191,290.965485 L671.42396,290.846992 C678.118414,290.213851 685.604186,290.081078 690.704988,294.506691 C693.444988,296.897691 695.654988,302.397691 694.314988,306.067691 C697.433988,307.137691 700.404988,308.506691 703.114988,310.237691 C708.484988,308.436691 714.124988,308.637691 719.523988,310.516691 L720.16537,310.745891 C724.00371,312.15503 729.444178,314.824259 731.529988,318.631691 C726.466988,284.313691 719.643988,250.288691 711.066988,216.674691 C705.591988,203.250691 698.673988,190.419691 690.284988,178.577691 C669.154988,148.737691 638.713988,128.217691 611.374988,104.627691 C608.962613,107.282441 606.364191,109.808566 603.934111,112.239563 L602.903988,113.275691 C597.953988,118.288691 592.790988,123.085691 587.513988,127.750691 C576.484988,137.500691 564.875988,146.499691 553.349988,155.642691 C530.114988,174.075691 509.107988,193.648691 491.629988,217.713691 C491.315988,218.147691 490.444988,217.894691 490.687988,217.317691 C502.675988,188.820691 527.527988,167.155691 550.103988,147.052691 C561.975988,136.481691 574.125988,126.165691 585.540988,115.095691 C590.862527,109.934768 596.017911,104.595762 600.881298,98.9992345 L602.090988,97.5946915 C605.270988,93.8726915 612.716988,82.5086915 617.637988,90.7076915 C618.668988,92.4226915 618.623988,94.6166915 617.637988,96.3336915 C616.239988,98.7736915 614.464988,101.100691 612.523988,103.335691 C619.423988,107.088691 626.181988,111.051691 632.791988,115.246691 C632.411988,113.225691 632.506988,110.991691 632.859988,108.756691 L632.975718,108.04675 L633.457135,105.274811 C634.147705,101.188538 634.502771,97.3895175 631.909988,93.4036915 C628.667988,88.4176915 622.554988,86.8626915 617.684988,83.9816915 C612.074988,80.6616915 609.144988,76.2196915 606.140988,70.5816915 C600.388069,59.788732 587.391245,55.4608826 576.220529,51.9886712 L574.814988,51.5526915 C564.492988,48.3536915 553.326988,46.6416915 543.006988,49.7156915 C543.974988,54.2216915 545.241988,58.6636915 546.824988,62.9906915 C548.509988,67.5966915 552.358988,72.7176915 551.964988,77.6926915 C551.692988,81.1356915 547.562988,84.8156915 544.135988,82.1846915 C539.281988,78.4606915 538.311988,72.3956915 537.010988,66.6176915 C535.752988,61.0296915 534.949988,55.3056915 534.607988,49.5886915 C534.278926,44.079004 534.536094,38.5728321 535.215521,33.1006629 L535.736601,29.0818716 L535.86311,28.1485453 C536.430269,24.0861132 537.273716,19.8222852 539.558988,16.6376915 C539.778988,16.3316915 540.316988,16.3246915 540.416988,16.7496915 Z M399.587988,-6.09330855 C399.660988,-5.76830855 399.711988,-5.44730855 399.757988,-5.12630855 C400.091988,-3.75630855 400.216988,-2.43930855 400.175988,-1.11630855 C400.195988,-0.639308549 400.160988,-0.161308549 400.071988,0.311691451 C399.892988,1.86869145 399.517988,3.46669145 399.010988,5.21369145 C397.931988,8.93069145 396.695988,12.6026915 395.314988,16.2196915 C392.584988,23.3726915 389.361988,30.1976915 385.377988,36.7396915 C378.180988,48.5566915 369.031988,58.3656915 358.245988,66.8446915 C360.292988,68.5336915 362.293988,70.2906915 364.298988,72.0156915 C373.989988,80.3556915 383.418988,89.0736915 392.551988,98.0216915 C408.770988,113.914691 424.663988,130.102691 440.183988,146.678691 C447.838988,154.853691 455.351988,163.135691 462.823988,171.473691 L463.068941,171.754243 L463.333788,172.069776 C465.98697,175.278448 471.290892,182.930917 475.247988,181.701691 C477.245988,181.079691 479.349988,178.098691 480.711988,176.676691 L483.220738,174.060691 C484.054738,173.186191 484.883488,172.306691 485.697988,171.414691 C500.293988,155.422691 514.104988,138.816691 527.072988,121.459691 C533.400988,112.990691 539.517988,104.362691 545.412988,95.5846915 C548.442988,91.0716915 551.416988,86.5186915 554.330988,81.9276915 C557.148988,77.4876915 559.427988,72.7156915 563.580988,69.4016915 C566.628988,66.9696915 570.851988,69.1996915 570.083988,73.1866915 C568.873988,79.4656915 564.527988,84.7756915 561.105988,90.0826915 C557.668988,95.4156915 554.150988,100.696691 550.553988,105.921691 C543.630988,115.981691 536.407988,125.829691 528.926988,135.479691 C522.484655,143.790191 515.763349,151.887261 508.860124,159.820196 L506.972988,161.979691 C499.547988,170.444691 492.259988,179.430691 484.054988,187.156691 C476.707988,194.075691 468.683988,192.059691 461.990988,185.335691 C453.525988,176.834691 445.666988,167.640691 437.521988,158.829691 C421.245988,141.221691 404.799988,123.747691 388.183988,106.459691 L382.72184,100.769889 C376.352964,94.1220495 370.010099,87.4324692 363.832988,80.6206915 L363.035865,79.7325587 C355.991418,71.8080544 348.828061,61.8806551 338.812988,57.8516915 C338.088988,57.5606915 338.354988,56.5326915 339.136988,56.6766915 C345.547988,57.8616915 350.899988,61.0916915 355.879988,64.9506915 C360.355988,57.5436915 364.349988,49.7356915 367.831988,41.7496915 L365.597956,40.7796667 C349.61415,33.8730648 331.598585,26.9091691 314.437988,28.0286915 C307.521988,28.4786915 300.142988,31.0986915 295.367988,36.2906915 C291.043988,40.9936915 288.884988,47.3356915 284.916988,52.3446915 C280.371988,58.0816915 274.443988,60.6636915 267.168988,60.8966915 L263.631477,61.0039535 C259.562729,61.1360124 255.660877,61.3494692 251.533988,62.2446915 C240.351988,64.6686915 228.562988,68.6016915 219.184988,75.3186915 C215.782988,77.7546915 212.270988,81.1046915 210.625988,84.7956915 C208.994988,88.4526915 208.525988,92.7316915 208.366988,96.6786915 C208.289988,98.6026915 208.866988,101.143691 208.384988,102.984691 C208.439988,102.773691 208.464988,102.885691 208.471988,103.105691 C209.970988,104.287691 210.991988,106.252691 211.102988,108.210691 C220.450988,103.338691 230.127988,99.0686915 239.992988,95.2196915 C250.976988,90.9346915 262.301988,87.5006915 273.628988,84.2486915 C284.714988,81.0676915 296.318988,79.7516915 307.619988,77.4836915 C309.058988,77.1946915 309.558988,79.1376915 308.217988,79.6536915 C296.339988,84.2156915 284.846988,89.6236915 272.869988,93.9156915 C260.898988,98.2066915 249.016988,102.850691 237.392988,108.012691 C214.924988,117.993691 193.221988,130.693691 175.520988,147.924691 C158.232988,164.754691 144.897988,185.199691 132.495988,205.755691 C120.005988,226.456691 108.858988,247.911691 98.9239883,269.950691 C79.2699883,313.549691 64.5319883,359.390691 54.8289883,406.214691 C45.3859883,451.780691 40.1099883,498.973691 41.8669883,545.546691 C42.7009883,567.666691 45.4029883,589.803691 51.6869883,611.077691 C54.6889883,621.241691 58.4469883,631.172691 63.1949883,640.653691 C68.2019883,650.649691 74.9479883,659.553691 79.5199883,669.719691 C79.8959883,670.555691 80.0399883,671.358691 80.0189883,672.104691 C99.5189883,688.999691 130.040988,677.614691 151.144988,667.527691 C199.704988,644.307691 247.364988,618.897691 292.664988,589.737691 C337.374988,560.956691 379.744988,528.836691 421.114988,495.497691 C417.914988,492.197691 415.093988,488.497691 412.614988,485.147691 C407.494988,478.227691 403.644988,470.387691 400.994988,462.206691 C397.894988,452.626691 396.933988,442.376691 397.814988,432.367691 L398.064883,429.536782 C398.907716,420.084791 399.881352,410.493055 401.954988,401.256691 C401.973988,401.137691 402.064988,401.086691 402.164988,401.086691 C402.263988,401.086691 402.364988,401.147691 402.404988,401.256691 C407.994988,419.147691 408.444988,438.376691 414.723988,456.037691 C417.253988,463.137691 421.173988,469.997691 425.874988,475.887691 C427.904988,478.436691 430.284988,480.647691 432.713988,482.807691 C432.874988,481.706691 433.093988,480.617691 433.423988,479.547691 L433.685854,478.700501 C434.011272,477.672346 434.413988,476.52858 434.973988,475.516691 C434.183988,475.287691 433.414988,475.037691 432.654988,474.756691 C432.053988,474.537691 431.923988,473.567691 432.654988,473.407691 C434.644988,472.947691 436.694988,472.717691 438.784988,472.617691 C439.114988,472.567691 439.433988,472.557691 439.753988,472.577691 C443.664988,472.456691 447.644988,472.737691 451.414988,472.797691 C457.944988,472.897691 464.454988,473.016691 470.973988,473.307691 C483.454988,473.846691 497.543988,476.237691 509.824988,473.336691 C520.984988,470.697691 531.984988,463.256691 540.933988,456.256691 C548.753988,450.137691 554.784988,442.867691 561.273988,435.617691 C560.807988,435.691025 560.345544,435.759914 559.884877,435.824062 L555.700277,436.397494 C550.41802,437.102703 544.147488,437.655897 539.954988,435.117691 C538.353988,434.147691 538.814988,431.947691 540.444988,431.346691 C544.723988,429.777691 550.034988,431.077691 554.593988,430.857691 C558.173988,430.686691 561.794988,430.307691 565.324988,429.567691 C566.484988,429.327691 567.633988,429.047691 568.773988,428.717691 C577.133988,426.307691 586.954988,417.827691 580.314988,408.567691 C580.064988,408.217691 580.343988,407.897691 580.683988,407.836691 C580.834988,407.807691 580.994988,407.836691 581.124988,407.947691 C588.683988,414.206691 584.753988,425.426691 577.603988,430.237691 C575.144988,431.897691 572.364988,433.057691 569.484988,433.907691 C570.034988,434.916691 570.133988,436.157691 569.473988,437.336691 C563.874988,447.317691 554.394988,456.086691 545.513988,463.137691 C536.394988,470.376691 525.874988,477.206691 514.564988,480.407691 C501.503988,484.086691 487.154988,481.317691 473.904988,480.147691 C466.723988,479.516691 459.564988,478.766691 452.394988,477.936691 C450.473988,477.717691 448.484988,477.547691 446.463988,477.357691 C448.364988,479.857691 449.874988,482.737691 450.864988,484.467691 C454.084988,490.086691 451.114988,497.487691 444.874988,499.206691 C444.223988,499.387691 443.553988,499.487691 442.894988,499.506691 C441.213988,502.876691 437.213988,505.357691 433.513988,504.086691 C431.904988,503.537691 430.353988,502.787691 428.864988,501.887691 C405.593988,522.327691 381.093988,541.506691 355.894988,559.487691 C309.164988,592.827691 260.183988,623.277691 209.394988,650.047691 C197.955088,656.077691 186.427708,661.945691 174.802642,667.585352 L164.796757,672.408329 C153.72159,677.738332 142.386863,683.039191 130.624988,686.346691 C128.331988,686.991691 125.930988,687.512691 123.470988,687.911691 C123.439136,688.131915 123.431106,688.342752 123.445509,688.544573 C121.233955,688.839381 119.304148,688.884312 117.656264,688.679411 L117.280988,688.627691 C102.863988,689.635691 87.4429883,686.115691 78.1679883,675.585691 C76.6219883,676.670691 74.3679883,676.790691 72.3789883,675.229691 C62.3759883,667.380691 56.4129883,655.430691 51.1799883,644.021691 C45.8739883,632.448691 41.7149883,620.387691 38.6589883,608.031691 C32.5549883,583.353691 30.1339883,557.897691 30.006403,532.512691 C29.5449883,434.693691 54.0429883,336.015691 96.5949883,248.196691 C107.386988,225.923691 119.282988,204.066691 132.488988,183.129691 C145.658988,162.249691 160.951988,142.844691 180.536988,127.616691 C186.168988,123.238691 192.027988,119.235691 198.070988,115.547691 C194.014988,113.537691 192.403988,108.424691 192.119988,103.882691 C191.489988,93.7956915 192.691988,82.1746915 198.597988,73.6636915 C206.882988,61.7236915 221.713988,54.3616915 235.465988,50.7816915 C242.644988,48.9136915 250.070988,47.8246915 257.475988,47.4566915 C261.293988,47.2656915 265.260988,47.8936915 269.032988,47.4816915 C272.360988,47.1196915 274.418988,45.1336915 276.332988,42.5226915 C281.235988,35.8296915 284.427988,28.8096915 291.460988,23.9036915 C298.676988,18.8706915 308.027988,16.9446915 316.720988,17.4666915 C326.847988,18.0756915 336.086988,22.0656915 345.005988,26.6506915 C353.055988,30.7886915 360.869988,35.3726915 368.484988,40.2626915 C369.880988,36.9916915 371.195988,33.6956915 372.418988,30.3886915 C374.790988,23.9766915 376.853988,17.3606915 378.527988,10.7326915 C380.224988,4.01169145 379.976988,-4.86430855 385.102988,-9.91830855 C389.559988,-14.3113085 398.142988,-12.5863085 399.587988,-6.09330855 Z M745.067462,442.370965 L745.030988,442.378691 C734.662988,448.522691 729.704988,463.876691 724.824988,470.586691 C725.223988,472.836691 725.503988,475.126691 726.053988,477.256691 C727.314988,482.147691 728.963988,486.997691 730.874988,491.657691 C734.234988,499.887691 738.444988,507.727691 742.334988,515.706691 C745.464988,522.123691 748.531988,528.658691 750.917988,535.413691 C750.658988,535.672691 750.419988,535.979691 750.216988,536.360691 C747.628988,541.207691 745.602988,540.254691 740.827988,539.196691 L740.824988,539.186691 C738.093988,530.827691 734.154988,522.977691 730.614988,514.956691 L729.754033,512.998387 L728.902651,511.038527 C725.944817,504.174075 723.245628,497.246091 721.673988,489.887691 C720.673988,485.197691 720.263988,480.376691 720.204988,475.586691 C717.614988,477.717691 714.503988,479.247691 710.584988,479.836691 C702.197488,481.103656 694.600964,475.850858 687.766994,471.636491 L686.226734,470.693634 C681.948447,468.09074 677.706572,465.685941 672.773988,464.456691 C667.173988,463.057691 661.383988,463.057691 655.694988,462.346691 C655.013988,462.256691 654.324988,462.166691 653.633988,462.057691 C655.853988,469.407691 656.883988,477.387691 658.204988,484.747691 C660.044988,495.067691 661.544988,505.477691 662.984988,515.857691 C665.784988,535.977691 667.734988,556.256691 668.723988,576.547691 C669.682322,596.193525 669.199681,615.765886 668.488894,635.405597 L668.134357,644.983185 C667.850201,652.781183 667.616296,660.587691 667.753988,668.387691 C668.133988,668.416691 668.513988,668.477691 668.894988,668.567691 C672.834988,669.487691 675.523988,673.506691 679.124988,675.297691 C686.723988,679.077691 695.904988,679.027691 703.994988,677.117691 C722.394988,672.756691 737.694988,659.916691 747.773988,644.227691 C759.874988,625.407691 764.314988,603.256691 764.173988,581.096691 C764.00753,556.157316 759.96861,532.311895 754.346007,508.234851 L753.984988,506.697691 C749.252788,486.639301 746.288689,442.561601 745.067462,442.370965 Z M229.826388,392.050291 C229.931388,398.758291 227.203388,405.933291 225.704388,412.451291 C224.090388,419.474291 222.480388,426.497291 220.848388,433.517291 L219.380517,439.80651 C218.158388,445.04772 216.953388,450.29272 215.873388,455.566291 C214.985388,459.901291 214.613388,465.614291 213.158388,470.393291 C230.465388,463.393291 247.799388,456.464291 265.104388,449.487291 C286.424388,440.888291 307.844388,432.527291 329.214388,424.067291 C350.504388,415.647291 371.674388,406.067291 393.395388,398.867291 C398.565388,397.147291 402.065388,405.397291 397.114388,407.686291 C375.054388,417.917291 351.714388,425.927291 329.114388,434.888291 L296.422797,447.866386 C266.453811,459.757523 236.464388,471.591225 206.324388,483.017291 C185.794388,490.798291 165.344388,498.808291 144.684388,506.197291 C134.834388,509.718291 124.895388,513.048291 115.094388,516.697291 C106.884388,519.757291 98.0043883,524.298291 94.9643883,533.117291 C94.8043883,533.577291 94.1743883,533.388291 94.2443883,532.917291 C95.4743883,524.377291 101.815388,519.037291 108.964388,514.997291 C118.453084,509.621639 128.875012,505.709881 138.891187,501.398814 L140.254388,500.808291 C160.707388,491.888291 181.325388,483.329291 202.004388,474.913291 C201.799388,474.413291 201.678388,473.877291 201.669388,473.317291 L201.610388,473.333291 C201.234388,469.510291 202.987388,466.101291 204.248388,462.545291 L207.865388,452.341291 C210.275388,445.546291 212.437388,438.667291 214.664388,431.811291 C216.993388,424.645291 219.344388,417.486291 221.691388,410.326291 C223.679388,404.261291 225.015388,397.032291 228.416388,391.611291 C228.826388,390.958291 229.956388,391.325291 229.826388,392.050291 Z M628.114988,376.967691 L627.857265,378.270141 C627.556717,379.793136 627.274988,381.327691 627.204988,382.867691 C627.003988,386.897691 627.463988,390.926691 628.534988,394.817691 C629.584988,398.666691 631.053988,402.387691 633.144988,405.797691 C635.124988,409.006691 637.994988,411.527691 639.824988,414.817691 C640.013988,415.166691 640.133988,415.516691 640.183988,415.857691 C640.883988,415.567691 641.574988,415.307691 642.244988,415.096691 C647.824988,413.327691 653.523988,411.846691 659.303988,410.737691 L658.387304,410.675608 L657.795442,410.628452 C648.138041,409.811231 639.026296,406.651758 640.994988,395.376691 C642.108588,389.003251 647.11134,384.729216 652.473148,381.699931 L653.144988,381.327691 C653.433988,381.166691 653.734988,381.006691 654.023988,380.867691 C649.173988,380.047691 645.654988,379.037691 639.704988,378.037691 C635.843988,377.387691 631.973988,377.027691 628.114988,376.967691 Z M186.924388,238.085191 C196.420388,257.271191 203.564388,277.671191 208.954388,298.368191 C211.556522,308.363258 213.764913,318.45676 215.540536,328.630811 L216.123722,332.028095 L216.455168,333.87195 C218.113848,342.940552 220.220552,352.764702 217.784388,361.613191 C216.989388,364.504191 212.189388,365.648191 210.845388,362.521191 C206.791388,353.081191 207.361388,342.230191 206.186388,332.128191 C204.951388,321.528191 203.266388,310.978191 201.166388,300.515191 C197.132781,280.410799 191.471012,260.776908 185.16021,241.290731 L184.456388,239.126191 C183.920388,237.683191 186.254388,236.732191 186.924388,238.085191 Z M551.923988,323.916691 C549.093988,325.247691 546.263988,326.467691 543.763988,327.686691 C543.574988,327.787691 543.374988,327.876691 543.173988,327.977691 C546.003988,327.497691 548.843988,327.047691 551.683988,326.626691 C551.654988,325.706691 551.744988,324.797691 551.923988,323.916691 Z M662.657988,314.307691 C662.232845,314.445691 661.856927,314.668916 661.530233,314.974846 L661.370988,315.134691 C660.980988,315.497691 660.704988,315.926691 660.543988,316.421691 C660.293988,316.899691 660.177988,317.413691 660.198988,317.963691 L660.341988,319.026691 C660.531988,319.704691 660.874988,320.291691 661.370988,320.791691 L662.179988,321.416691 C662.725988,321.733441 663.309504,321.912379 663.930535,321.954174 L664.198988,321.963691 L665.00881,321.96405 C665.471825,321.948324 665.907131,321.833834 666.315988,321.618691 C666.741131,321.480691 667.11705,321.258202 667.443743,320.951852 L667.602988,320.791691 C667.993988,320.428691 668.268988,319.999691 668.429988,319.504691 C668.645131,319.095834 668.759621,318.659793 668.775347,318.197199 L668.774988,317.963691 L668.631988,316.899691 C668.465738,316.306441 668.182348,315.782098 667.781816,315.32599 L667.602988,315.134691 L666.793988,314.508691 C666.247988,314.192816 665.664473,314.013988 665.043441,313.972877 L664.774988,313.963691 L664.198988,313.963691 C663.647988,313.942691 663.133988,314.057691 662.657988,314.307691 Z M636.638988,312.954691 C634.513988,313.344691 633.308988,315.920691 633.845988,317.873691 C634.440182,320.036595 636.495354,320.997937 638.559588,320.702433 L638.765988,320.668691 C641.183988,320.223691 643.552988,320.395691 645.855988,321.244691 C647.881988,321.992691 650.238988,320.407691 650.775988,318.450691 C651.389988,316.216691 650.016988,314.280691 647.981988,313.530691 C644.331988,312.182691 640.416988,312.258691 636.638988,312.954691 Z M215.327888,170.899891 C220.166598,177.990537 223.187514,187.416874 226.167917,195.520113 L226.465888,196.325891 C229.633888,204.841891 232.689888,213.424891 235.539888,222.053891 C241.228888,239.278891 248.642888,257.303891 250.012888,275.499891 C250.265888,278.857891 245.126888,280.203891 243.636888,277.227891 C239.355888,268.670891 237.053888,259.750891 234.520888,250.576891 C232.104888,241.827891 229.587888,233.108891 227.069888,224.388891 C224.552888,215.673891 222.117888,206.932891 219.638888,198.206891 C217.227888,189.717891 213.870888,180.278891 213.318888,171.443891 C213.246888,170.295891 214.771888,170.083891 215.327888,170.899891 Z M324.537188,113.814591 C330.996188,118.297591 336.286188,124.854591 341.752188,130.462591 C347.297188,136.152591 352.768188,141.895591 358.188188,147.705591 C367.245188,157.415591 376.138188,167.284591 385.323188,176.876591 C403.627188,195.991591 424.334188,213.581591 449.596188,222.565591 C455.709188,224.739591 453.031188,234.549591 446.904188,232.329591 C421.065188,222.961591 399.660188,205.640591 380.779188,186.045591 C371.000188,175.897591 362.027188,165.053591 353.278188,154.016591 C349.184022,148.851591 345.120411,143.670619 341.114554,138.439531 L338.718188,135.294591 C333.681188,128.648591 327.518188,122.024591 323.832188,114.520591 C323.625188,114.098591 324.079188,113.497591 324.537188,113.814591 Z" id="Ink" fill="#000"/></g></g><g id="Head" transform="translate(372.000000, 180.000000) scale(0.9978902953586498 1)"><g id="Head/Short 5" stroke="none" stroke-width="1" fill="none" fill-rule="evenodd"><path d="M242.041161,75.2596156 C298.821805,75.2596156 357.551668,119.271611 378.365264,147.356837 C395.864342,170.969555 405.286153,277.745152 405.286153,349.905008 C405.286153,364.996849 413.614596,393.445968 411.184129,407.881894 C402.277902,460.781042 363.475367,505.14576 286.676873,505.14576 C209.87838,505.14576 154.814935,474.704319 97.7325351,392.972519 C70.0358893,392.972519 56.6129701,371.732631 56.4152532,338.213866 C56.2871511,315.868022 65.1995229,300.630067 83.1523686,292.5 C76.7512999,204.313833 81.6113554,148.741029 97.7325351,125.781589 C121.914305,91.3424282 185.260516,75.2596156 242.041161,75.2596156 Z" id="Skin" fill="#ffdbb4"/><path d="M218.1465,56.5559 C253.9965,52.9259 289.1265,55.9759 324.4565,62.2869 C327.1565,62.7759 328.6865,64.5469 329.2555,66.6759 C345.8965,67.4359 362.5565,68.6569 379.1755,69.5669 C385.2065,69.8969 388.6255,75.8559 385.8755,81.2369 C385.3265,82.3059 384.7555,83.3459 384.1755,84.3859 L384.90416,84.145677 C389.903636,82.5418162 395.304128,81.751086 400.1755,84.2969 C406.3755,87.5369 408.8065,94.6859 407.4365,101.2659 C407.0855,102.9459 406.4965,104.5559 405.8265,106.1269 C407.1865,106.0369 408.5565,106.0669 409.9165,106.2469 C417.1565,107.2069 422.5365,112.7569 422.9165,120.1469 C423.4765,131.3059 416.2865,142.6269 407.8165,150.6159 C409.0455,153.1469 409.5165,156.1269 409.0055,159.1469 C407.9855,165.1169 403.5875,168.6919 398.4895,171.0239 C400.6155,177.7749 401.6205,184.8329 401.0275,192.0459 C400.8295,194.4539 398.7235,196.4429 396.5005,196.9309 C404.7865,219.7449 408.9805,244.2389 411.9965,268.1059 C414.1465,285.0869 415.2065,302.1669 415.3355,319.2759 C415.398611,327.000344 415.271302,334.73348 414.947253,342.459154 L414.8165,345.3559 C414.4165,353.7069 414.3965,362.4759 412.8965,370.7369 C418.0165,379.4459 420.0765,390.2569 420.9465,400.0159 C422.0265,412.0959 420.3165,424.5559 416.5055,436.0469 C402.1255,479.4659 358.7265,506.8659 315.1355,513.9869 C274.7865,520.5769 228.0965,511.7069 204.5165,475.0559 C204.1465,474.4759 204.9365,473.9969 205.3965,474.3769 C222.2665,488.0959 241.8355,494.2159 263.0965,497.1959 C299.8565,502.3369 341.1755,493.6159 370.6755,470.4969 C384.8355,459.3969 395.0455,443.2369 399.5365,425.8459 C401.8265,416.9569 402.6165,407.6859 401.7155,398.5369 C400.7955,389.2569 396.6865,381.3369 394.0965,372.5669 C393.2265,369.6059 394.1465,366.8559 395.9565,364.8969 C396.4655,357.7759 397.6665,350.5959 398.1255,343.4969 C398.6355,335.4259 398.9465,327.3559 399.0565,319.2759 C399.2665,302.5159 398.5665,285.7259 397.1565,269.0369 C394.5765,238.4759 387.7265,208.6569 383.7065,178.3559 C382.217833,179.690867 380.0844,180.239031 377.848178,179.072708 L377.6165,178.9459 L376.3965,178.2469 C376.3265,178.2469 376.2465,178.2569 376.1755,178.2659 C367.8265,179.0769 359.1665,177.9169 351.1665,175.4259 C342.7955,172.8269 335.0265,168.8269 328.0855,163.4969 C326.7665,170.1859 326.2155,176.9459 326.2065,183.7659 C326.1965,188.0259 321.6865,190.2369 318.1065,188.4169 C302.2365,180.3559 287.0765,171.0669 272.6865,160.6269 C271.0055,169.2369 269.3265,177.8459 267.6355,186.4659 C266.9865,189.7869 262.7555,191.1269 260.0455,189.5469 C249.2665,183.2759 239.9565,175.0669 232.3765,165.3059 C230.863167,168.1999 229.345389,171.093456 227.817241,173.980641 L225.5165,178.3059 C223.2465,182.5559 220.2065,187.2569 215.2365,188.6159 C209.9765,190.0559 205.5855,186.6469 203.8165,181.8859 C203.2765,180.4069 202.7765,178.8859 202.3165,177.3559 C197.8355,187.5869 192.7765,197.5869 187.0565,207.1269 C178.4765,221.4359 168.1755,234.1859 157.9065,247.2659 C154.7865,251.2369 149.4465,247.4459 149.0165,243.5869 C148.7665,241.3169 148.5565,239.0369 148.3755,236.7659 C142.3915,248.8419 136.1475,260.8049 129.3445,272.4209 L130.3185,276.2379 L130.3185,276.2379 C133.1255,287.5159 135.4565,298.8739 137.9905,310.2119 C138.8085,313.8699 136.8645,319.0999 132.5905,319.7229 C127.4845,320.4669 122.6535,323.0759 117.4235,321.2809 C111.7205,319.3229 110.5935,314.3939 107.9015,309.7219 C107.3645,308.7909 106.7395,307.9359 106.0675,307.1239 L105.8965,307.3459 L105.8965,307.3459 C105.4765,307.8969 104.4765,307.2969 104.7265,306.6669 L105.0195,305.9389 L105.0195,305.9389 C102.7065,303.4839 99.9385,301.4359 97.3935,299.2329 C91.3455,298.2139 84.5425,299.3299 80.3755,301.7869 C70.8855,307.3859 66.5265,318.9259 66.4365,329.5369 C66.3265,341.9569 70.1755,355.9169 76.6755,366.5369 C79.5365,371.2069 83.4565,375.4259 88.6355,377.4969 C93.7765,379.5559 99.3465,378.9169 104.5765,380.8559 C108.0365,382.1469 110.1665,385.9869 108.0765,389.4659 C107.9365,389.7069 107.7765,389.9259 107.6255,390.1569 L109.181019,392.221381 C110.250944,393.651456 111.3665,395.182567 112.4065,396.7759 C115.0665,399.8369 117.8665,402.7869 120.5765,405.7969 C125.5855,411.3459 130.4465,417.0469 135.3755,422.6759 C140.0265,427.9869 144.9465,432.9759 150.0165,437.8859 C154.8065,442.5369 160.7865,446.4459 165.1865,451.4069 C169.4655,456.2469 170.6265,464.6959 163.5855,467.4969 C155.796208,470.60315 148.900566,463.323034 143.657071,458.469499 L143.4365,458.2659 C133.8245,449.4209 125.1445,439.3129 118.2515,428.1839 C111.4235,432.8319 101.5475,433.2759 94.7485,428.6289 C91.1705,426.1839 88.4255,422.0749 87.0915,417.6049 C85.8335,417.8869 84.5765,418.0519 83.3505,418.0329 C82.7195,418.3989 82.0865,418.7549 81.4465,419.0869 C76.3755,421.7259 70.1465,420.5469 67.8265,414.9359 C65.7138913,409.84227 67.8908578,404.057449 69.7937681,399.149752 L70.1865,398.1359 C71.2665,395.3369 72.4565,392.2869 73.9365,389.4169 C69.8165,386.3169 66.2955,382.4659 63.3165,378.0869 C53.3065,363.3369 48.3065,341.7659 50.5165,324.1669 C51.8465,313.5469 56.8355,302.5469 65.0055,295.3859 L64.7065,294.6059 L64.7065,294.6059 C62.4165,288.7969 60.3355,282.9659 58.9865,276.8269 C57.4065,269.6469 56.6355,262.2069 55.9365,254.8969 C54.4565,239.4569 54.8565,223.6669 56.8265,208.2869 C60.5265,179.3369 69.9065,150.9169 86.5565,126.8269 C81.8355,121.1759 78.0965,114.5259 80.0455,106.8769 C80.9365,103.3659 82.9655,100.0369 86.0265,98.0259 C87.7155,96.9169 89.7265,96.7469 91.4165,95.8269 L91.9246563,95.5471104 C92.6669844,95.1139329 92.0991765,95.1598412 91.6565,93.1469 C89.9065,85.1059 91.3565,77.3369 100.2065,74.6669 C108.5365,72.1569 116.4165,77.4869 121.3465,83.8369 C134.2465,74.6859 151.2465,69.8969 166.1965,65.8269 C183.1965,61.2159 200.6355,58.3369 218.1465,56.5559 Z M78.8069,326.2562 C78.7459,319.7062 84.9559,315.6662 91.0669,316.7372 C95.1702571,317.451271 98.5933031,319.90018 101.807624,322.431371 L103.374768,323.671291 C107.288878,326.74416 111.782567,330.056933 114.1159,334.4072 C117.5359,340.8272 110.3069,349.4662 103.5569,344.9662 C98.9265667,341.8632 95.95861,336.891311 92.921411,332.272642 L92.6069,331.7962 C91.2269,329.7262 90.0169,327.5262 88.1259,325.8662 L87.7174162,325.508484 C87.0959496,324.978762 86.4285364,324.495291 85.6259,324.2662 C84.0775129,323.821039 81.2095629,324.444452 80.526766,326.287794 L80.4659,326.4762 C80.2159,327.4072 78.8169,327.2062 78.8069,326.2562 Z" id="Ink" fill="#000"/></g></g><g id="Face" transform="translate(531.000000, 366.000000) scale(1 1)" fill="#000"><g id="Face/Smile Big" stroke="none" stroke-width="1" fill="none" fill-rule="evenodd"><path d="M79.1996019,197.798966 C90.1214942,191.222404 130.944848,196.042976 163.01327,197.798966 C188.478595,199.193385 206.667356,196.429949 212.488767,200.348155 C225.641067,209.200546 219.252652,252.006116 196.589222,257.86012 C173.925792,263.714125 89.9129827,271.890526 75.4275085,257.86012 C60.9420343,243.829714 59.6047058,209.597931 79.1996019,197.798966 Z" id="teeth" fill="#FFF"/><path d="M93.3467129,186.476493 C110.488788,184.396013 127.104995,189.644043 143.862898,192.289481 C152.710839,193.685435 161.569756,194.727668 170.523469,195.115267 C172.32459,195.193982 174.126708,195.239817 175.928826,195.276684 C176.096465,193.690417 176.984552,192.233683 178.908408,191.360838 C182.851913,189.573299 186.008114,188.767213 190.337788,188.93959 C194.301251,189.096024 198.278683,189.503551 202.181276,190.217969 C209.268011,191.517272 216.386677,194.465615 221.570511,199.588099 C233.567668,211.441255 231.741602,230.480436 222.47157,243.39077 C203.319435,270.068282 168.364112,271.306425 138.426282,270.958393 L135.66356,270.922255 C108.404278,270.532663 69.4042864,274.596972 57.019963,243.583075 C52.465773,232.178299 53.0984103,218.959081 58.6743992,208.020619 C65.3250733,194.973778 79.3249167,188.178341 93.3467129,186.476493 Z M178.495298,230.894938 L178.250824,230.904902 C165.682896,231.389151 153.116964,231.72992 140.542051,231.952117 C140.918241,235.181444 141.302413,238.411767 141.741468,241.63412 C142.085726,244.169954 142.454931,246.702799 142.839103,249.232654 C143.001753,250.303783 143.598468,251.966772 143.429831,253.027936 L143.368962,253.44742 L143.368962,253.44742 C144.014571,253.739364 144.600309,254.209664 145.03637,254.892197 C145.188043,255.128344 145.297807,255.366483 145.407571,255.603626 C155.170541,255.680348 165.676909,255.491033 175.629471,253.716447 L175.649428,253.500229 L175.649428,253.500229 C175.830039,252.228824 176.358899,251.372918 177.061386,250.786039 C177.76088,246.731694 177.697017,242.411311 177.967435,238.38885 C178.136071,235.889883 178.318678,233.392909 178.495298,230.894938 Z M130.93774,232.123497 C121.87903,232.277607 112.816379,232.396289 103.759597,232.285698 L99.6481393,232.22214 L99.6481393,232.22214 C100.516269,236.880303 101.461234,241.522523 102.246542,246.211574 C103.065777,251.098909 98.7640436,254.205679 95.0410632,254.080133 C95.4591626,254.148884 95.8762641,254.219628 96.2943635,254.278416 C107.926308,255.92347 120.004291,255.487047 131.808863,255.474094 C131.173731,251.767293 131.431054,247.584788 131.336033,244.49078 L131.317921,244.011527 C131.13731,240.046857 131.010583,236.085177 130.93774,232.123497 Z M69.4062821,231.268587 C69.720605,233.690832 70.3322874,236.061264 71.2473164,238.268286 C75.1139873,247.592582 83.9788918,251.943854 93.3586871,253.776231 C91.7311928,253.214262 90.4389764,251.864142 90.1126792,249.551502 C89.299431,243.801286 89.0070608,237.955417 88.9851081,232.116522 C82.448189,232.055742 75.8673645,231.916246 69.4062821,231.268587 Z M212.584867,229.277783 C207.930891,230.375814 202.522541,229.872633 197.956377,230.079884 C193.678592,230.274182 189.398811,230.443569 185.121025,230.616943 C185.322591,233.537386 185.519168,236.456834 185.732708,239.375285 C186.008114,243.147649 186.034059,247.134239 186.756502,250.890661 C195.365957,247.952282 203.08034,243.240314 208.867873,235.705549 C210.309767,233.828335 211.600986,231.625298 212.584867,229.277783 Z M91.3799494,201.775194 C83.6326376,203.609563 76.3004317,207.484557 72.3599198,214.573932 C70.020958,218.780726 68.9921741,223.766703 69.1897485,228.679944 C75.7376439,227.917699 82.3982965,227.628744 89.0270178,227.389608 C89.0489705,226.195923 89.0771321,225.003566 89.1129808,223.813719 L89.2151053,220.764114 C89.3957906,214.947692 89.4865796,207.643706 91.3799494,201.775194 Z M131.479572,202.48463 L128.069104,202.101567 C118.596243,201.022247 109.128468,199.889225 99.6551242,200.538664 C98.2840775,200.633321 96.892076,200.782781 95.4970809,200.987043 C97.1714741,207.029203 97.0307772,214.125552 97.7302705,220.106932 C98.000688,222.419573 98.3419529,224.713282 98.7201382,226.998024 L100.363598,226.921301 L100.363598,226.921301 C110.528702,226.370293 120.703784,226.031517 130.876871,225.627976 C130.876122,223.71788 130.8866,221.806663 130.917143,219.894746 L130.954703,217.982611 C131.070454,213.099262 130.755133,207.598146 131.479572,202.48463 Z M179.049105,201.709432 C169.127476,203.310644 158.873564,203.651412 149.127558,203.663369 C145.234942,203.668351 141.344323,203.429215 137.455699,203.084462 C137.709153,205.154977 137.84087,207.249407 138.031459,209.291027 C138.415432,213.416914 138.854327,217.536423 139.331283,221.652107 L139.756743,225.25333 L139.756743,225.25333 C152.260808,224.686379 164.763876,224.073594 177.264948,223.438888 L179.029148,223.344231 L179.029148,223.344231 L179.523638,216.423284 C179.860246,211.808262 180.23056,207.194273 180.753433,202.600212 L180.361278,202.458723 L180.361278,202.458723 C179.900271,202.269408 179.463213,202.008351 179.049105,201.709432 Z M183.357823,203.427223 C183.904645,209.952636 184.206994,216.504952 184.609128,223.041325 L192.850339,222.601065 C194.223751,222.526187 195.597126,222.449797 196.970501,222.370749 C202.310997,222.062862 209.173215,220.445708 214.452843,221.954255 C214.855974,217.154604 213.48393,212.478506 209.152261,209.254161 C201.547641,203.590632 191.864499,205.607342 183.357823,203.427223 Z M155.2009,145.0937 C167.4729,138.0657 198.2639,130.8827 200.2139,152.9677 C201.11069,163.130663 193.55511,171.551452 184.732334,175.308984 L184.4009,175.4477 C176.1259,178.8497 161.4589,182.6917 154.2979,175.3147 C148.3379,169.1747 156.2429,158.1657 163.6489,163.1957 C167.454921,165.779721 175.466095,163.875752 179.713009,162.646215 L179.9789,162.5687 C184.5619,161.2217 190.6719,156.9107 188.7769,151.2677 C187.0999,146.2757 179.9639,145.3637 175.4949,145.2017 C168.8239,144.9627 162.3319,146.5117 155.7219,147.0157 C154.6749,147.0957 154.3519,145.5797 155.2009,145.0937 Z M206.0359,109.581 C222.6919,108.801 233.0529,126.987 229.2229,141.888 C228.5609,144.459 225.6849,146.983 222.9089,146.694 L222.209444,146.629632 C221.8541,146.59548 221.4971,146.5506 221.1689,146.46 C218.5329,145.73 216.1699,142.988 216.3619,140.146 L216.412906,139.317884 C216.801522,132.278753 216.038672,124.168709 207.6729,122.464 C200.5779,121.018 196.6169,127.847 196.5329,134.133 C196.5169,135.249 195.2629,136.028 194.2759,135.428 C189.1469,132.307 188.2589,126.098 190.2179,120.751 C192.7009,113.976 198.9149,109.914 206.0359,109.581 Z M82.4329,113.4814 C94.5539,109.4374 107.6309,115.8984 113.4999,126.6144 C115.5589,127.2104 117.6149,128.7974 117.3289,131.2274 C116.9159,134.7234 116.2939,136.9274 113.8699,139.5784 C110.078488,143.725503 102.977604,141.605092 101.401739,136.499971 L101.3349,136.2694 C99.5449,129.6704 92.2809,125.3164 85.6639,127.6264 C77.9339,130.3244 78.1579,138.4884 72.7359,143.2444 C72.0989,143.8034 71.3349,143.8924 70.5709,143.5234 C64.8119,140.7404 65.8469,132.3644 67.8999,127.5704 C70.5929,121.2794 75.8269,115.6844 82.4329,113.4814 Z M65.9254,76.6741 C75.7474,66.6521 101.3594,56.9541 108.0784,75.4611 C109.3584,78.9861 106.6334,83.7391 102.9634,84.4701 C96.9534,85.6661 91.6214,83.0571 85.6514,83.5251 C80.8184,83.9061 75.7774,85.5211 71.9134,88.5151 C61.2114,96.8071 58.8574,110.8321 51.4004,121.3861 C51.0374,121.9001 50.3324,121.6841 50.2654,121.0781 C48.5674,105.7131 55.1674,87.6501 65.9254,76.6741 Z M194.0206,66.8082 C200.5386,64.5062 207.9196,64.7032 214.4716,66.7452 C221.0716,68.8032 227.1306,72.7112 231.7986,77.8172 C233.9166,80.1352 235.8766,82.6932 237.4486,85.4162 C238.2836,86.8592 239.1616,89.8402 240.1106,91.6152 C245.245093,94.5796058 247.439689,101.334701 242.842821,106.140464 L242.6356,106.3512 L242.0206,106.9612 C239.5496,109.4072 235.8236,110.4672 232.4506,109.4902 C224.9026,107.3062 223.9856,101.3612 221.3726,95.0512 C219.6466,90.8832 216.6896,87.1952 213.1046,84.4862 C204.6316,78.0862 190.7386,76.0472 180.5376,79.0632 C179.9946,79.2242 179.3566,78.5322 179.7436,78.0302 C181.6766,75.5262 182.7906,73.4712 185.3786,71.4512 C188.0056,69.4012 190.8726,67.9202 194.0206,66.8082 Z" id="Ink" fill="#000"/></g></g><g id="Beard" transform="translate(494.999934, 517.999659) scale(1 1)" fill="#000"><g id="Beard/None" stroke="none" stroke-width="1" fill="none" fill-rule="evenodd" fill-opacity="0"/></g><g id="Mask" transform="translate(400.000000, 480.000000) scale(1 1)" fill="#000"><g id="Mask/None" stroke="none" stroke-width="1" fill="none" fill-rule="evenodd" fill-opacity="0"/></g><g id="Accessories" transform="translate(419.000000, 421.000000) scale(1 1)" fill="#000"><g id="Accessories/Glasses 2" stroke="none" stroke-width="1" fill="none" fill-rule="evenodd"><path d="M372.3111,95.4577 C360.1701,108.0027 339.9021,111.6027 323.7491,104.8747 C282.2731,87.5457 302.5741,33.4957 334.5611,18.9807 C338.5571,17.9847 343.8941,15.6217 348.7611,15.0857 C349.2011,14.8697 350.1591,15.4947 351.3201,14.9037 C386.5911,18.8417 394.6231,73.5937 372.3111,95.4577 M238.5331,98.6687 C224.9161,116.7297 199.6001,122.3017 178.9161,113.9057 C138.0541,97.8137 152.5471,49.8847 180.5041,31.0947 C239.5611,8.9037 263.9481,65.3677 238.5331,98.6687 M149.9531,58.6507 C149.9151,58.6327 149.8771,58.6237 149.8381,58.6057 C150.0541,58.5107 150.2701,58.4157 150.4851,58.3187 C150.4151,58.5017 150.3391,58.6827 150.2711,58.8657 C150.1651,58.7927 150.0721,58.7077 149.9531,58.6507 M400.4231,39.1277 C397.0891,39.1347 392.2731,39.6827 389.5131,41.9957 C382.7071,19.0427 357.5851,-2.2003 335.7371,13.2897 C318.5321,18.8227 305.7651,31.0937 298.5091,47.4077 C285.4261,39.6257 264.8541,42.9487 253.5091,53.2397 C246.0791,28.6887 227.7931,20.0917 206.0281,18.8227 C182.2721,14.9317 158.5941,38.0027 151.2061,56.5107 C145.0631,55.8117 135.8841,53.8567 130.1051,57.6477 C92.5981,47.8117 27.0231,42.3887 19.3981,47.8537 C13.9641,49.9387 10.9821,62.7647 18.5721,63.4567 C25.1861,62.5177 17.8001,54.0587 24.4671,53.1357 C59.9901,50.9337 94.4751,58.0877 129.6221,61.0897 C132.7601,65.3107 142.8991,66.7227 148.3081,65.0267 C139.7891,96.4227 158.1791,117.7827 185.7341,124.1807 C228.4011,133.9817 265.5221,95.8137 254.3651,56.1137 C267.2901,49.6837 282.1571,49.9597 296.2371,53.3467 C272.7091,139.9367 412.1661,136.0517 390.3851,44.9627 C404.8801,52.1727 408.0281,40.5827 400.4231,39.1277" id="Ink" fill="#000"/></g></g></g></svg>